<svg width="336" height="100" viewBox="0 0 336 100" fill="none" xmlns="http://www.w3.org/2000/svg">
<path d="M12.9 22.1399C14.23 22.1399 15.32 23.2199 15.32 24.5599V56.2299C15.32 57.5599 14.24 58.6499 12.9 58.6499C11.56 58.6499 10.48 57.5699 10.48 56.2299V24.5599C10.48 23.2299 11.56 22.1399 12.9 22.1399Z" fill="white"/>
<path d="M26.72 22.2101H26.9C29.03 22.2101 30.87 23.6901 31.34 25.7601L31.61 26.9701C33.08 25.4901 37.44 21.8701 45.23 21.8701C54.22 21.8701 60.12 26.5701 60.12 37.0301V56.2201C60.12 57.5501 59.04 58.6401 57.7 58.6401C56.36 58.6401 55.29 57.5601 55.29 56.2201V38.5101C55.29 36.2301 55.22 31.7401 52.61 29.1901C50.87 27.5101 47.71 26.4401 44.36 26.4401C41.54 26.4401 38.52 27.1801 35.97 28.9201C32.01 31.6001 31.61 35.6901 31.54 38.1101V56.2201C31.54 57.5501 30.46 58.6401 29.12 58.6401C27.78 58.6401 26.7 57.5601 26.7 56.2201V22.2101H26.72Z" fill="white"/>
<path d="M140.26 58.3001H140.08C137.95 58.3001 136.11 56.8201 135.64 54.7501L135.37 53.5401C133.9 55.0201 129.54 58.6401 121.75 58.6401C112.76 58.6401 106.86 53.9401 106.86 43.4801V24.2901C106.86 22.9601 107.94 21.8701 109.28 21.8701C110.62 21.8701 111.69 22.9501 111.69 24.2901V42.0001C111.69 44.2801 111.76 48.7701 114.37 51.3201C116.11 53.0001 119.27 54.0701 122.62 54.0701C125.44 54.0701 128.45 53.3301 131.01 51.5901C134.97 48.9101 135.37 44.8201 135.44 42.4001V24.2901C135.44 22.9601 136.52 21.8701 137.86 21.8701C139.2 21.8701 140.27 22.9501 140.27 24.2901V58.3001H140.26Z" fill="white"/>
<path d="M72.29 47.7701C72.42 49.4501 74.23 54.7501 83.96 54.7501C88.52 54.6801 94.36 53.9501 94.36 48.2401C94.29 47.0301 94.03 43.7401 83.56 42.2701C73.49 40.8601 69 37.3801 69.4 31.4001C69.8 25.5001 75.3 21.8101 83.56 21.8101C90.52 21.9201 95.6 24.9001 97.19 29.8001C97.68 31.3101 96.6 32.8801 95.01 32.8801C93.94 32.8801 93.07 32.1301 92.79 31.1001C91.72 27.2201 87.12 26.0301 83.29 25.9701C77.59 25.9701 74.03 27.9101 73.83 31.4701C73.76 34.7601 77.12 36.9701 84.29 37.9801C94.89 39.4601 99.32 42.7501 99.25 48.9801C99.18 53.8801 94.42 58.9101 84.16 58.9101C77.77 59.1001 72.14 57.0601 69.43 53.2001C67.84 50.9201 69.5 47.7701 72.29 47.7701Z" fill="white"/>
<path d="M153.15 58.6399C151.82 58.6399 150.74 57.5599 150.74 56.2199V22.1399H152.58C153.73 22.1399 154.73 22.9599 154.95 24.0899L155.51 26.9099C156.51 25.3599 159.73 21.8799 166.91 21.8799C167.65 21.8799 168.59 21.9499 169.12 22.1499V24.3999C169.12 25.7699 167.98 26.8199 166.61 26.8099C164.23 26.7899 162.21 27.2999 160 28.8599C155.97 31.6799 155.64 35.6999 155.57 38.9199V56.2299C155.57 57.5599 154.49 58.6399 153.15 58.6399Z" fill="white"/>
<path d="M179.05 38.45H203.08C204.37 38.45 205.41 37.33 205.29 36.04C205.04 33.48 204.17 31.5 202.67 30C200.39 27.65 196.9 26.44 192.47 26.44C184.29 26.44 179.05 30.73 179.05 38.25V38.45ZM174.33 44.87C171.54 29.29 183.2 18.54 198.5 22.61C201.67 23.45 204.27 25 206.23 27.17C209.05 30.35 210.26 34.92 209.86 40.36C209.78 41.48 208.79 42.33 207.67 42.33H179.06V42.6C179.06 50.18 184.16 54.34 192.48 54.34C196.78 54.34 200.51 53.1 203.22 50.78C204.08 50.04 205.37 50.13 206.16 50.94L206.29 51.07C207.18 51.97 207.12 53.44 206.18 54.28C202.86 57.29 198.09 58.89 192.48 58.89C182.45 58.91 175.92 53.75 174.33 44.87Z" fill="white"/>
<path d="M218.32 44.9499V16.7799C218.32 15.5899 219.28 14.6299 220.47 14.6299H221C222.18 14.6299 223.15 15.5899 223.15 16.7799V19.9999C223.15 21.1899 224.11 22.1499 225.3 22.1499H231.27C232.45 22.1499 233.42 23.1099 233.42 24.2999C233.42 25.4799 232.46 26.4499 231.27 26.4499H225.3C224.12 26.4499 223.15 27.4099 223.15 28.5999V48.1199C223.15 48.1199 222.88 52.3499 226.3 53.7499C227.17 54.0899 228.04 54.2199 228.78 54.2199C230.99 54.2199 232.8 53.1499 233.48 52.4099L234.81 54.4099C235.48 55.4199 235.21 56.7999 234.17 57.4199C232.92 58.1599 230.97 58.9199 228.18 58.9199C223.01 58.9199 219.26 55.4999 218.52 49.8599C218.52 49.8499 218.32 48.6399 218.32 44.9499Z" fill="white"/>
<path d="M246.5 38.45H270.52C271.82 38.45 272.86 37.32 272.73 36.03C272.48 33.48 271.61 31.49 270.11 29.99C267.83 27.64 264.34 26.43 259.91 26.43C251.72 26.43 246.49 30.72 246.49 38.24V38.45H246.5ZM241.78 44.87C238.99 29.29 250.64 18.54 265.94 22.61C269.11 23.45 271.71 25 273.67 27.17C276.49 30.35 277.7 34.92 277.3 40.35C277.22 41.48 276.23 42.33 275.1 42.33H246.49V42.6C246.49 50.18 251.59 54.34 259.91 54.34C264.21 54.34 267.93 53.1 270.64 50.78C271.5 50.04 272.79 50.13 273.58 50.94L273.7 51.07C274.59 51.98 274.53 53.4401 273.59 54.2901C270.27 57.2901 265.49 58.9001 259.9 58.9001C249.89 58.91 243.37 53.75 241.78 44.87Z" fill="white"/>
<path d="M305.86 37.6399C305.21 36.6699 305.35 35.3799 306.19 34.5699L313.45 27.5499H306.72L294.69 39.2899C293.16 40.7799 290.59 39.6999 290.59 37.5599V11.3399C290.59 10.0099 289.51 8.92993 288.17 8.92993C286.84 8.92993 285.76 10.0099 285.76 11.3399V56.2199C285.76 57.5499 286.84 58.6399 288.17 58.6399C289.5 58.6399 290.59 57.5599 290.59 56.2199V50.5999C290.59 49.9499 290.86 49.3199 291.33 48.8599L299.04 41.3999C300.13 40.3499 301.9 40.5399 302.73 41.7999L308.77 50.9299L313.49 49.0899L305.86 37.6399Z" fill="white"/>
<path d="M317.57 55.0801L311.72 46.55L307.3 48.8301L313.43 57.76C314.19 58.87 315.74 59.18 316.89 58.44C318.03 57.7 318.33 56.1901 317.57 55.0801Z" fill="white"/>
<path d="M311.99 22.42L304.92 29.32L307.85 32.99L315.25 25.76C316.17 24.86 316.19 23.38 315.29 22.46C314.39 21.54 312.91 21.52 311.99 22.42Z" fill="white"/>
<path d="M319.25 22.22H318.1V21.75H320.94V22.22H319.8V25.83H319.25V22.22Z" fill="white"/>
<path d="M323.42 24.54L322.14 22.65V25.83H321.61V21.75H322.12L323.6 23.93L325.07 21.75H325.58V25.83H325.05V22.65L323.77 24.54H323.42Z" fill="white"/>
<path d="M15.78 14.4099C15.78 16.3299 14.4 17.4199 13.02 17.4199C11.39 17.4199 10.01 16.3299 10.01 14.4099C10.01 12.6899 11.39 11.6099 13.02 11.6099C14.4 11.5999 15.78 12.6899 15.78 14.4099Z" fill="white"/>
<path d="M17.49 88.12C18.58 88.12 19.35 87.99 19.78 87.73C20.21 87.47 20.43 87 20.43 86.34C20.43 85.91 20.37 85.58 20.25 85.33C20.13 85.08 19.95 84.89 19.71 84.76C19.47 84.63 19.16 84.55 18.77 84.51C18.39 84.48 17.93 84.46 17.41 84.46L13.47 84.44V88.12H17.49ZM17.51 81.69C18.33 81.69 18.9 81.58 19.21 81.37C19.52 81.16 19.68 80.77 19.68 80.22C19.68 79.67 19.51 79.28 19.16 79.07C18.81 78.86 18.2 78.75 17.32 78.75H13.47V81.69H17.51ZM10.48 90.88V75.98H17.14C17.4 75.98 17.71 75.99 18.08 76C18.45 76.01 18.84 76.06 19.24 76.14C19.64 76.22 20.05 76.34 20.45 76.51C20.85 76.68 21.22 76.92 21.55 77.24C21.88 77.55 22.14 77.95 22.34 78.43C22.54 78.91 22.64 79.51 22.64 80.22C22.64 80.69 22.56 81.15 22.41 81.61C22.25 82.07 22.01 82.44 21.69 82.71C22.26 83.08 22.68 83.58 22.96 84.21C23.24 84.84 23.37 85.56 23.37 86.37C23.37 86.88 23.29 87.41 23.14 87.95C22.98 88.49 22.69 88.97 22.27 89.41C21.84 89.84 21.26 90.2 20.5 90.48C19.75 90.76 18.77 90.9 17.58 90.9H10.48V90.88Z" fill="white"/>
<path d="M26.02 79.3H28.7V85.65C28.7 86.09 28.74 86.48 28.81 86.82C28.88 87.16 29 87.44 29.18 87.67C29.36 87.9 29.6 88.07 29.9 88.18C30.21 88.29 30.6 88.35 31.08 88.35C31.83 88.35 32.5 88.16 33.08 87.77C33.29 87.63 33.46 87.48 33.58 87.31C33.7 87.15 33.79 86.97 33.86 86.79C33.92 86.61 33.97 86.42 34 86.25C34.03 86.07 34.04 85.9 34.04 85.73V79.32H36.72V90.88H34.46L34.27 90.03C33.9 90.27 33.43 90.49 32.87 90.68C32.3 90.87 31.64 90.97 30.87 90.97C27.63 90.97 26.02 89.33 26.02 86.05V79.3Z" fill="white"/>
<path d="M40.33 79.3H43.01V90.88H40.33V79.3ZM40.25 76.45C40.25 75.5 40.73 75.02 41.68 75.02C42.13 75.02 42.49 75.14 42.74 75.38C43 75.62 43.12 75.98 43.1 76.45C43.07 77.4 42.6 77.88 41.67 77.88C41.21 77.88 40.86 77.76 40.62 77.51C40.37 77.26 40.25 76.9 40.25 76.45Z" fill="white"/>
<path d="M49.16 75.1101H46.48V90.8901H49.16V75.1101Z" fill="white"/>
<path d="M52.36 86.3699V76.9199H55.06L55.04 79.2599H57.38V81.8099H55.04L55.06 87.2399C55.06 87.3799 55.07 87.5199 55.1 87.6399C55.13 87.7499 55.17 87.8599 55.24 87.9699C55.3 88.0799 55.4 88.1599 55.53 88.2299C55.71 88.3299 55.91 88.3799 56.1 88.3799C56.27 88.3799 56.43 88.3499 56.59 88.2799C56.75 88.2099 56.88 88.1499 56.99 88.0799C57.13 88.0099 57.26 87.9199 57.37 87.7999L58.84 89.5499C58.81 89.5899 58.73 89.6899 58.59 89.8499C58.45 90.0099 58.25 90.1699 57.98 90.3299C57.72 90.4899 57.4 90.6399 57.01 90.7699C56.63 90.8999 56.18 90.9599 55.67 90.9599C54.76 90.9599 54.02 90.6799 53.46 90.1099C52.89 89.5399 52.54 88.7799 52.42 87.8299C52.41 87.7999 52.39 87.6799 52.38 87.4699C52.37 87.2599 52.36 86.8999 52.36 86.3699Z" fill="white"/>
<path d="M67.71 78.13C67.84 77.18 68.19 76.42 68.75 75.85C69.32 75.28 70.06 75 70.96 75C71.47 75 71.92 75.06 72.29 75.19C72.67 75.32 72.99 75.46 73.25 75.63C73.51 75.79 73.71 75.95 73.86 76.11C74 76.27 74.09 76.37 74.12 76.41L72.65 78.15C72.54 78.04 72.41 77.94 72.27 77.85C72.16 77.78 72.02 77.72 71.87 77.66C71.71 77.6 71.55 77.57 71.38 77.57C71.18 77.57 70.99 77.62 70.81 77.72C70.68 77.79 70.59 77.88 70.52 77.99C70.46 78.1 70.41 78.21 70.38 78.32C70.35 78.45 70.34 78.58 70.34 78.7V79.3H72.7V81.83H70.34V90.88H67.66V79.6C67.66 79.08 67.67 78.71 67.68 78.49C67.68 78.28 67.7 78.16 67.71 78.13Z" fill="white"/>
<path d="M79.61 88.42C81.74 88.42 82.8 87.31 82.8 85.1C82.8 82.89 81.74 81.78 79.61 81.78C77.48 81.78 76.42 82.89 76.42 85.1C76.42 87.31 77.48 88.42 79.61 88.42ZM73.74 85.09C73.74 84.18 73.87 83.36 74.14 82.64C74.41 81.92 74.8 81.3 75.31 80.79C75.82 80.28 76.44 79.89 77.16 79.62C77.88 79.35 78.7 79.22 79.61 79.22C80.52 79.22 81.33 79.36 82.06 79.62C82.78 79.89 83.4 80.28 83.91 80.79C84.42 81.3 84.81 81.92 85.08 82.64C85.35 83.36 85.48 84.18 85.48 85.09C85.48 86 85.34 86.82 85.08 87.54C84.81 88.26 84.42 88.88 83.91 89.39C83.4 89.9 82.78 90.29 82.06 90.56C81.34 90.83 80.52 90.96 79.61 90.96C78.7 90.96 77.89 90.82 77.16 90.56C76.44 90.29 75.82 89.9 75.31 89.39C74.8 88.88 74.41 88.26 74.14 87.54C73.87 86.82 73.74 86 73.74 85.09Z" fill="white"/>
<path d="M88.13 79.3H90.41L90.6 80.11C90.88 79.83 91.24 79.61 91.66 79.45C92.09 79.29 92.61 79.22 93.24 79.22C93.64 79.22 93.96 79.26 94.22 79.33C94.38 79.36 94.51 79.39 94.62 79.44V82.08C94.52 82.05 94.41 82.03 94.3 82.02C94.09 81.98 93.82 81.96 93.49 81.96C92.57 81.96 91.9 82.18 91.48 82.63C91.06 83.08 90.84 83.76 90.81 84.68V90.9H88.13V79.3Z" fill="white"/>
<path d="M103.2 86.3699V76.9199H105.9L105.88 79.2599H108.22V81.8099H105.88L105.9 87.2399C105.9 87.3799 105.91 87.5199 105.94 87.6399C105.97 87.7499 106.01 87.8599 106.08 87.9699C106.14 88.0799 106.24 88.1599 106.37 88.2299C106.55 88.3299 106.75 88.3799 106.94 88.3799C107.11 88.3799 107.27 88.3499 107.43 88.2799C107.59 88.2099 107.72 88.1499 107.83 88.0799C107.97 88.0099 108.1 87.9199 108.21 87.7999L109.68 89.5499C109.65 89.5899 109.57 89.6899 109.43 89.8499C109.29 90.0099 109.09 90.1699 108.82 90.3299C108.55 90.4899 108.24 90.6399 107.85 90.7699C107.47 90.8999 107.02 90.9599 106.51 90.9599C105.6 90.9599 104.86 90.6799 104.3 90.1099C103.73 89.5399 103.38 88.7799 103.26 87.8299C103.25 87.7999 103.23 87.6799 103.22 87.4699C103.21 87.2599 103.2 86.8999 103.2 86.3699Z" fill="white"/>
<path d="M112.1 90.8801V75.1101H114.78V80.0001C115.15 79.8001 115.6 79.6201 116.12 79.4601C116.64 79.3001 117.26 79.2101 117.97 79.2101C119.52 79.2101 120.71 79.6401 121.55 80.5001C122.39 81.3601 122.81 82.5701 122.81 84.1301V90.8801H120.13V84.6401C120.13 84.1901 120.09 83.7901 120.02 83.4601C119.95 83.1301 119.83 82.8501 119.65 82.6201C119.47 82.3901 119.23 82.2201 118.93 82.1101C118.62 82.0001 118.23 81.9401 117.75 81.9401C116.9 81.9401 116.2 82.1501 115.65 82.5801C115.1 83.0101 114.82 83.6701 114.79 84.5601V90.8801H112.1Z" fill="white"/>
<path d="M133.86 84.07C133.79 83.5 133.6 83.05 133.31 82.71C132.78 82.11 131.93 81.83 130.73 81.86C130.45 81.86 130.15 81.89 129.83 81.96C129.51 82.02 129.21 82.13 128.93 82.29C128.65 82.45 128.4 82.67 128.21 82.96C128.01 83.25 127.89 83.62 127.85 84.08H133.86V84.07ZM130.92 79.24C131.86 79.24 132.69 79.39 133.43 79.68C134.17 79.97 134.79 80.4 135.28 80.97C135.78 81.57 136.13 82.26 136.33 83.07C136.53 83.87 136.56 84.77 136.4 85.76L136.32 86.33H127.87C127.87 86.66 127.96 86.95 128.13 87.22C128.3 87.49 128.53 87.72 128.81 87.9C129.09 88.08 129.43 88.23 129.82 88.32C130.21 88.42 130.62 88.47 131.05 88.47C131.67 88.47 132.24 88.35 132.74 88.12C133.24 87.89 133.66 87.58 133.99 87.22L135.74 88.97C135.21 89.62 134.54 90.12 133.71 90.47C132.88 90.82 131.95 90.99 130.93 90.99C130.02 90.99 129.2 90.86 128.48 90.59C127.76 90.32 127.14 89.93 126.63 89.42C126.12 88.91 125.73 88.29 125.46 87.57C125.19 86.85 125.06 86.03 125.06 85.12C125.06 84.21 125.2 83.4 125.46 82.67C125.73 81.95 126.12 81.33 126.63 80.82C127.14 80.31 127.76 79.92 128.48 79.65C129.2 79.37 130.01 79.24 130.92 79.24Z" fill="white"/>
<path d="M145.53 90.8801V75.1101H148.21V80.0001C148.58 79.8001 149.03 79.6201 149.55 79.4601C150.07 79.3001 150.69 79.2101 151.4 79.2101C152.95 79.2101 154.14 79.6401 154.98 80.5001C155.82 81.3601 156.24 82.5701 156.24 84.1301V90.8801H153.56V84.6401C153.56 84.1901 153.52 83.7901 153.45 83.4601C153.38 83.1301 153.26 82.8501 153.08 82.6201C152.9 82.3901 152.66 82.2201 152.36 82.1101C152.05 82.0001 151.66 81.9401 151.18 81.9401C150.33 81.9401 149.63 82.1501 149.08 82.5801C148.53 83.0101 148.25 83.6701 148.22 84.5601V90.8801H145.53Z" fill="white"/>
<path d="M159.13 79.3H161.81V85.65C161.81 86.09 161.85 86.48 161.92 86.82C161.99 87.16 162.11 87.44 162.29 87.67C162.47 87.9 162.71 88.07 163.01 88.18C163.32 88.29 163.71 88.35 164.19 88.35C164.94 88.35 165.61 88.16 166.19 87.77C166.4 87.63 166.57 87.48 166.69 87.31C166.81 87.15 166.9 86.97 166.97 86.79C167.03 86.61 167.08 86.42 167.11 86.25C167.14 86.07 167.15 85.9 167.15 85.73V79.32H169.83V90.88H167.57L167.38 90.03C167.01 90.27 166.54 90.49 165.98 90.68C165.41 90.87 164.74 90.97 163.98 90.97C160.74 90.97 159.13 89.33 159.13 86.05V79.3Z" fill="white"/>
<path d="M173.16 79.3H175.48L175.69 80.11C176.06 79.88 176.54 79.68 177.14 79.49C177.74 79.31 178.42 79.21 179.18 79.21C180.94 79.21 182.27 79.7 183.18 80.68C183.61 80.33 184.18 79.99 184.89 79.68C185.61 79.37 186.47 79.21 187.48 79.21C189.14 79.21 190.42 79.64 191.32 80.49C192.22 81.34 192.67 82.56 192.67 84.13V90.88H189.77V84.54C189.77 83.66 189.6 82.99 189.27 82.53C188.94 82.07 188.31 81.84 187.39 81.84C187.15 81.84 186.83 81.88 186.43 81.96C186.03 82.04 185.65 82.19 185.28 82.42C184.87 82.66 184.6 82.99 184.46 83.4C184.32 83.81 184.25 84.19 184.24 84.55V90.89H181.47V84.55C181.47 83.67 181.3 83 180.96 82.54C180.62 82.08 179.99 81.85 179.07 81.85C178.83 81.85 178.51 81.89 178.12 81.96C177.73 82.03 177.34 82.19 176.96 82.43C176.76 82.56 176.6 82.71 176.47 82.88C176.34 83.05 176.24 83.23 176.16 83.42C176.08 83.61 176.02 83.81 175.99 84.01C175.95 84.21 175.94 84.39 175.94 84.56V90.9H173.15V79.3H173.16Z" fill="white"/>
<path d="M201.22 88.33C203.31 88.33 204.35 87.25 204.35 85.09C204.35 82.92 203.31 81.83 201.22 81.83C199.13 81.83 198.09 82.92 198.09 85.09C198.09 87.25 199.14 88.33 201.22 88.33ZM195.35 85.09C195.35 84.18 195.49 83.36 195.75 82.64C196.02 81.92 196.4 81.3 196.9 80.79C197.4 80.28 198 79.89 198.71 79.62C199.42 79.35 200.22 79.22 201.12 79.22C202.44 79.22 203.57 79.52 204.51 80.11L204.66 79.28H206.94V90.88H204.66L204.51 90.07C203.55 90.67 202.42 90.96 201.12 90.96C200.23 90.96 199.42 90.82 198.71 90.54C198 90.26 197.4 89.87 196.9 89.37C196.4 88.87 196.02 88.25 195.75 87.53C195.48 86.82 195.35 86 195.35 85.09Z" fill="white"/>
<path d="M210.25 90.88V79.3H212.51L212.7 80.15C213.07 79.91 213.54 79.69 214.1 79.5C214.67 79.31 215.34 79.21 216.1 79.21C217.65 79.21 218.84 79.64 219.69 80.49C220.53 81.34 220.96 82.56 220.96 84.13V90.88H218.28V84.53C218.28 84.08 218.24 83.68 218.17 83.35C218.1 83.02 217.97 82.74 217.8 82.51C217.62 82.28 217.38 82.11 217.08 82C216.77 81.89 216.38 81.83 215.9 81.83C215.15 81.83 214.48 82.02 213.9 82.41C213.49 82.68 213.23 83.01 213.12 83.39C213.01 83.77 212.95 84.13 212.94 84.46V90.89H210.25V90.88Z" fill="white"/>
<path d="M238.82 84.07C238.75 83.5 238.57 83.05 238.27 82.71C237.75 82.11 236.89 81.83 235.69 81.86C235.41 81.86 235.1 81.89 234.79 81.96C234.47 82.02 234.17 82.13 233.89 82.29C233.61 82.45 233.36 82.67 233.17 82.96C232.97 83.25 232.85 83.62 232.81 84.08H238.82V84.07ZM235.89 79.24C236.83 79.24 237.66 79.39 238.4 79.68C239.14 79.97 239.76 80.4 240.25 80.97C240.75 81.57 241.1 82.26 241.3 83.07C241.5 83.87 241.53 84.77 241.37 85.76L241.28 86.33H232.83C232.83 86.66 232.91 86.95 233.09 87.22C233.26 87.49 233.49 87.72 233.77 87.9C234.05 88.08 234.39 88.23 234.78 88.32C235.17 88.42 235.58 88.47 236 88.47C236.62 88.47 237.19 88.35 237.69 88.12C238.19 87.89 238.61 87.58 238.94 87.22L240.69 88.97C240.16 89.62 239.49 90.12 238.66 90.47C237.83 90.82 236.9 90.99 235.88 90.99C234.97 90.99 234.15 90.86 233.43 90.59C232.71 90.32 232.09 89.93 231.58 89.42C231.07 88.91 230.68 88.29 230.41 87.57C230.14 86.85 230.01 86.03 230.01 85.12C230.01 84.21 230.15 83.4 230.41 82.67C230.68 81.95 231.07 81.33 231.58 80.82C232.09 80.31 232.71 79.92 233.43 79.65C234.16 79.37 234.98 79.24 235.89 79.24Z" fill="white"/>
<path d="M247.08 75.1101H244.4V90.8901H247.08V75.1101Z" fill="white"/>
<path d="M258.43 84.07C258.36 83.5 258.18 83.05 257.88 82.71C257.36 82.11 256.5 81.83 255.3 81.86C255.02 81.86 254.71 81.89 254.4 81.96C254.08 82.02 253.78 82.13 253.5 82.29C253.22 82.45 252.97 82.67 252.78 82.96C252.58 83.25 252.46 83.62 252.42 84.08H258.43V84.07ZM255.49 79.24C256.43 79.24 257.26 79.39 258 79.68C258.74 79.97 259.36 80.4 259.85 80.97C260.35 81.57 260.7 82.26 260.9 83.07C261.1 83.87 261.13 84.77 260.97 85.76L260.88 86.33H252.43C252.43 86.66 252.51 86.95 252.69 87.22C252.86 87.49 253.09 87.72 253.37 87.9C253.65 88.08 253.99 88.23 254.38 88.32C254.77 88.42 255.18 88.47 255.6 88.47C256.22 88.47 256.79 88.35 257.29 88.12C257.79 87.89 258.21 87.58 258.54 87.22L260.29 88.97C259.76 89.62 259.09 90.12 258.26 90.47C257.43 90.82 256.5 90.99 255.48 90.99C254.57 90.99 253.75 90.86 253.03 90.59C252.31 90.32 251.69 89.93 251.18 89.42C250.67 88.91 250.28 88.29 250.01 87.57C249.74 86.85 249.61 86.03 249.61 85.12C249.61 84.21 249.75 83.4 250.01 82.67C250.28 81.95 250.67 81.33 251.18 80.82C251.69 80.31 252.31 79.92 253.03 79.65C253.77 79.37 254.58 79.24 255.49 79.24Z" fill="white"/>
<path d="M263.71 79.3H266.03L266.24 80.11C266.61 79.88 267.09 79.68 267.69 79.49C268.29 79.31 268.97 79.21 269.73 79.21C271.49 79.21 272.82 79.7 273.73 80.68C274.16 80.33 274.73 79.99 275.44 79.68C276.16 79.37 277.02 79.21 278.03 79.21C279.69 79.21 280.97 79.64 281.87 80.49C282.77 81.34 283.22 82.56 283.22 84.13V90.88H280.32V84.54C280.32 83.66 280.15 82.99 279.82 82.53C279.49 82.07 278.86 81.84 277.94 81.84C277.7 81.84 277.38 81.88 276.98 81.96C276.58 82.04 276.2 82.19 275.83 82.42C275.42 82.66 275.15 82.99 275.01 83.4C274.87 83.81 274.8 84.19 274.79 84.55V90.89H272.02V84.55C272.02 83.67 271.85 83 271.51 82.54C271.17 82.08 270.54 81.85 269.62 81.85C269.38 81.85 269.06 81.89 268.67 81.96C268.28 82.03 267.89 82.19 267.51 82.43C267.31 82.56 267.15 82.71 267.02 82.88C266.89 83.05 266.79 83.23 266.71 83.42C266.63 83.61 266.57 83.81 266.54 84.01C266.5 84.21 266.49 84.39 266.49 84.56V90.9H263.7V79.3H263.71Z" fill="white"/>
<path d="M294.71 84.07C294.64 83.5 294.46 83.05 294.16 82.71C293.64 82.11 292.78 81.83 291.58 81.86C291.3 81.86 290.99 81.89 290.68 81.96C290.36 82.02 290.06 82.13 289.78 82.29C289.5 82.45 289.25 82.67 289.06 82.96C288.86 83.25 288.74 83.62 288.7 84.08H294.71V84.07ZM291.77 79.24C292.71 79.24 293.54 79.39 294.28 79.68C295.02 79.97 295.64 80.4 296.13 80.97C296.63 81.57 296.98 82.26 297.18 83.07C297.38 83.87 297.41 84.77 297.25 85.76L297.16 86.33H288.71C288.71 86.66 288.8 86.95 288.97 87.22C289.14 87.49 289.37 87.72 289.65 87.9C289.93 88.08 290.27 88.23 290.66 88.32C291.05 88.42 291.46 88.47 291.88 88.47C292.5 88.47 293.07 88.35 293.57 88.12C294.07 87.89 294.49 87.58 294.82 87.22L296.57 88.97C296.04 89.62 295.37 90.12 294.54 90.47C293.71 90.82 292.78 90.99 291.76 90.99C290.85 90.99 290.03 90.86 289.31 90.59C288.59 90.32 287.97 89.93 287.46 89.42C286.95 88.91 286.56 88.29 286.29 87.57C286.02 86.85 285.89 86.03 285.89 85.12C285.89 84.21 286.03 83.4 286.29 82.67C286.56 81.95 286.95 81.33 287.46 80.82C287.97 80.31 288.59 79.92 289.31 79.65C290.05 79.37 290.86 79.24 291.77 79.24Z" fill="white"/>
<path d="M300.42 90.88V79.3H302.68L302.87 80.15C303.24 79.91 303.71 79.69 304.27 79.5C304.84 79.31 305.51 79.21 306.27 79.21C307.82 79.21 309.01 79.64 309.86 80.49C310.7 81.34 311.13 82.56 311.13 84.13V90.88H308.45V84.53C308.45 84.08 308.41 83.68 308.34 83.35C308.27 83.02 308.14 82.74 307.97 82.51C307.79 82.28 307.55 82.11 307.25 82C306.94 81.89 306.55 81.83 306.07 81.83C305.32 81.83 304.65 82.02 304.07 82.41C303.66 82.68 303.4 83.01 303.29 83.39C303.18 83.77 303.12 84.13 303.11 84.46V90.89H300.42V90.88Z" fill="white"/>
<path d="M314.02 86.3699V76.9199H316.72L316.7 79.2599H319.04V81.8099H316.7L316.72 87.2399C316.72 87.3799 316.73 87.5199 316.76 87.6399C316.79 87.7499 316.83 87.8599 316.9 87.9699C316.96 88.0799 317.06 88.1599 317.19 88.2299C317.37 88.3299 317.57 88.3799 317.77 88.3799C317.94 88.3799 318.1 88.3499 318.26 88.2799C318.42 88.2099 318.55 88.1499 318.66 88.0799C318.8 88.0099 318.93 87.9199 319.04 87.7999L320.51 89.5499C320.48 89.5899 320.4 89.6899 320.25 89.8499C320.11 90.0099 319.91 90.1699 319.64 90.3299C319.37 90.4899 319.05 90.6399 318.67 90.7699C318.29 90.8999 317.84 90.9599 317.33 90.9599C316.42 90.9599 315.68 90.6799 315.12 90.1099C314.55 89.5399 314.2 88.7799 314.08 87.8299C314.07 87.7999 314.05 87.6799 314.04 87.4699C314.03 87.2599 314.02 86.8999 314.02 86.3699Z" fill="white"/>
<path d="M322.26 89.2899C322.26 88.7899 322.41 88.3899 322.72 88.0899C323.02 87.7899 323.43 87.6299 323.92 87.6299C324.42 87.6299 324.82 87.7799 325.12 88.0899C325.42 88.3899 325.58 88.7999 325.58 89.2899C325.58 89.7799 325.43 90.1899 325.12 90.4999C324.81 90.8099 324.41 90.9699 323.92 90.9699C323.42 90.9699 323.02 90.8099 322.72 90.4999C322.41 90.1899 322.26 89.7799 322.26 89.2899Z" fill="white"/>
</svg>
