<svg width="18" height="18" viewBox="0 0 18 18" fill="none" xmlns="http://www.w3.org/2000/svg">
<path d="M17.8008 7.66334L16.3983 7.55746C16.3334 7.21936 16.2431 6.88169 16.1288 6.54984L17.2895 5.75677C17.3827 5.69316 17.4109 5.56853 17.3546 5.47085L16.2342 3.53001C16.1777 3.43276 16.0568 3.39459 15.9541 3.44333L14.6843 4.05225C14.4571 3.79135 14.2108 3.54467 13.949 3.31632L14.5582 2.04737C14.6071 1.94581 14.5694 1.82376 14.4717 1.76727L12.5294 0.645799C12.4315 0.589521 12.3071 0.617768 12.2434 0.710918L11.4506 1.87142C11.1269 1.76015 10.7897 1.67002 10.4438 1.60253L10.3358 0.199023C10.3272 0.0866816 10.2334 0 10.1208 0H7.88047C7.76792 0 7.67412 0.0866816 7.66549 0.199023L7.55746 1.60231C7.21139 1.66981 6.87393 1.75972 6.55071 1.8712L5.75656 0.710702C5.69295 0.617768 5.56832 0.589089 5.47064 0.645799L3.52979 1.76727C3.43233 1.82355 3.3946 1.94559 3.44333 2.04715L4.05225 3.31611C3.7907 3.54424 3.54402 3.79091 3.31611 4.05225L2.04715 3.44333C1.94559 3.39459 1.82355 3.43211 1.76727 3.52979L0.645799 5.47064C0.589305 5.56832 0.617768 5.69295 0.710918 5.75656L1.87163 6.54963C1.75951 6.87738 1.66937 7.21483 1.60253 7.55703L0.199454 7.66334C0.0871128 7.67175 0 7.76554 0 7.87832V10.121C0 10.2336 0.0868971 10.3274 0.199238 10.336L1.60253 10.4428C1.66937 10.7856 1.75972 11.1228 1.87163 11.4495L0.710918 12.2434C0.617768 12.307 0.589521 12.4317 0.646015 12.5291L1.76748 14.47C1.82376 14.5677 1.94602 14.6054 2.04737 14.5567L3.31654 13.9486C3.54704 14.2123 3.79372 14.4588 4.05247 14.6841L3.44354 15.9539C3.39481 16.0557 3.43254 16.1775 3.53001 16.234L5.47086 17.3555C5.56853 17.4118 5.69317 17.3835 5.75677 17.2904L6.55114 16.1284C6.88018 16.2414 7.21764 16.3319 7.55768 16.3985L7.66571 17.801C7.67433 17.9133 7.76813 18 7.88069 18H10.121C10.2336 18 10.3274 17.9133 10.336 17.801L10.444 16.3985C10.7867 16.3313 11.1239 16.2411 11.4508 16.1286L12.2437 17.2902C12.3073 17.3833 12.4317 17.4116 12.5296 17.3555L14.4719 16.234C14.5696 16.1775 14.6073 16.0557 14.5584 15.9539L13.9493 14.6839C14.2082 14.4583 14.4547 14.2121 14.6843 13.9486L15.9546 14.5567C16.0564 14.6056 16.178 14.5675 16.2345 14.47L17.3548 12.5291C17.4111 12.4315 17.3829 12.307 17.2897 12.2434L16.129 11.4497C16.2433 11.119 16.3334 10.7815 16.3985 10.4428L17.8012 10.336C17.9135 10.3274 18.0004 10.2336 18.0004 10.121V7.87832C18 7.76554 17.9131 7.67175 17.8008 7.66334ZM17.5687 9.92115L16.1989 10.0253C16.0999 10.0328 16.019 10.107 16.0027 10.2047C15.9321 10.6273 15.8192 11.0491 15.6674 11.4586C15.6329 11.5515 15.6661 11.6556 15.7478 11.7115L16.8809 12.4865L15.96 14.0812L14.7203 13.4878C14.6319 13.4458 14.525 13.4682 14.4618 13.5443C14.1813 13.88 13.8729 14.1886 13.5445 14.4616C13.4684 14.5248 13.4453 14.6315 13.488 14.7205L14.0825 15.9602L12.4865 16.8815L11.7126 15.7478C11.6567 15.6661 11.5521 15.6331 11.4596 15.6671C11.0564 15.8161 10.6342 15.9296 10.2045 16.004C10.1075 16.0208 10.0339 16.1014 10.0264 16.1997L9.92094 17.5685H8.07993L7.97449 16.1997C7.96694 16.1014 7.89341 16.0208 7.79616 16.004C7.37073 15.9304 6.94854 15.8172 6.54101 15.6669C6.4485 15.6329 6.34436 15.6661 6.28851 15.7476L5.51333 16.8815L3.91857 15.9602L4.51305 14.7205C4.55574 14.6315 4.53245 14.5248 4.45634 14.4616C4.12858 14.189 3.81959 13.8805 3.53777 13.5439C3.47459 13.4684 3.36829 13.446 3.27924 13.4878L2.04068 14.0812L1.11931 12.4865L2.25199 11.7117C2.3335 11.6559 2.36671 11.5519 2.33264 11.4592C2.18407 11.0564 2.0713 10.634 1.99691 10.2038C1.98009 10.1066 1.89923 10.0331 1.80069 10.0255L0.431036 9.92137V8.07841L1.80069 7.97513C1.89923 7.9678 1.98031 7.89427 1.99691 7.79681C2.07087 7.36793 2.18386 6.94509 2.33264 6.54014C2.36671 6.44742 2.3335 6.34349 2.25178 6.28786L1.11931 5.51355L2.04068 3.91878L3.27924 4.51305C3.36807 4.55595 3.47481 4.53267 3.53799 4.45677C3.81507 4.1247 4.12406 3.81571 4.45655 3.5382C4.53245 3.47502 4.55552 3.36829 4.51283 3.27945L3.91857 2.0409L5.51355 1.11931L6.28872 2.25221C6.34457 2.33393 6.44915 2.36692 6.54187 2.33264C6.9384 2.18515 7.3606 2.07238 7.79638 1.99712C7.89363 1.98031 7.96715 1.89966 7.9747 1.80112L8.08014 0.431251H9.92115L10.0266 1.80112C10.0341 1.89966 10.1077 1.98031 10.2049 1.99712C10.6398 2.07238 11.062 2.18515 11.4596 2.33264C11.5532 2.36735 11.6567 2.33372 11.7128 2.25199L12.4867 1.11931L14.0827 2.0409L13.4883 3.27924C13.4456 3.36829 13.4686 3.47481 13.5445 3.53799C13.8775 3.81593 14.1862 4.12492 14.4618 4.45634C14.5248 4.53245 14.6315 4.55531 14.7208 4.51283L15.9602 3.91835L16.8811 5.51312L15.748 6.28721C15.6663 6.34306 15.6333 6.44721 15.6676 6.53993C15.8196 6.95156 15.9326 7.37375 16.0029 7.79487C16.0193 7.89276 16.1003 7.96694 16.1993 7.97448L17.569 8.07777V9.92115H17.5687Z" fill="#707070"/>
<path d="M9.00181 4.34839C6.43565 4.34839 4.34796 6.43565 4.34796 9.00116C4.34796 11.5665 6.43565 13.6535 9.00181 13.6535C11.5665 13.6535 13.6531 11.5665 13.6531 9.00116C13.6531 6.43565 11.5665 4.34839 9.00181 4.34839ZM9.00181 13.2222C6.67348 13.2222 4.77921 11.3288 4.77921 9.00116C4.77921 6.67348 6.67348 4.77964 9.00181 4.77964C11.3288 4.77964 13.2218 6.67348 13.2218 9.00116C13.2218 11.3286 11.3288 13.2222 9.00181 13.2222Z" fill="#707070"/>
<path d="M9.0009 8.97803C7.79318 8.97803 6.81079 9.96063 6.81079 11.1681C6.81079 11.2874 6.90739 11.3838 7.02642 11.3838H10.9754C11.0946 11.3838 11.191 11.2874 11.191 11.1681C11.191 9.96063 10.2086 8.97803 9.0009 8.97803ZM7.25519 10.9525C7.36193 10.084 8.10411 9.40928 9.0009 9.40928C9.89769 9.40928 10.6401 10.084 10.7468 10.9525H7.25519Z" fill="#707070"/>
<path d="M9.00083 8.57011C9.71843 8.57011 10.3023 7.98619 10.3023 7.26859C10.3023 6.55077 9.71843 5.96686 9.00083 5.96686C8.28301 5.96686 7.6991 6.55077 7.6991 7.26859C7.6991 7.98619 8.28301 8.57011 9.00083 8.57011ZM9.00083 6.39832C9.48081 6.39832 9.87109 6.78882 9.87109 7.26881C9.87109 7.74879 9.4806 8.13907 9.00083 8.13907C8.52106 8.13907 8.13035 7.74857 8.13035 7.26881C8.13035 6.78904 8.52085 6.39832 9.00083 6.39832Z" fill="#707070"/>
</svg>
