<svg width="24" height="24" viewBox="0 0 24 24" fill="none" xmlns="http://www.w3.org/2000/svg">
<path d="M23 10.66C22.992 10.6071 22.9673 10.5582 22.9295 10.5204C22.8917 10.4826 22.8428 10.4579 22.79 10.45L21 10.15C20.922 9.79177 20.8252 9.43795 20.71 9.08995L22.07 7.99995C22.1142 7.96782 22.1455 7.92098 22.1584 7.86784C22.1712 7.8147 22.1647 7.75872 22.14 7.70995C21.7934 6.87986 21.3432 6.09697 20.8 5.37995C20.7697 5.33636 20.7253 5.30458 20.6742 5.29C20.6232 5.27541 20.5687 5.27893 20.52 5.29995L18.86 5.90995C18.61 5.63995 18.35 5.37995 18.08 5.13995L18.71 3.47995C18.7258 3.42816 18.7257 3.37282 18.7096 3.3211C18.6936 3.26939 18.6623 3.22369 18.62 3.18995C17.9137 2.65754 17.1487 2.20793 16.34 1.84995C16.2903 1.83044 16.2358 1.8267 16.1839 1.83922C16.1321 1.85174 16.0853 1.87993 16.05 1.91995L14.9 3.29995C14.5506 3.17545 14.1931 3.07522 13.83 2.99995L13.54 1.24995C13.5336 1.19646 13.5094 1.14666 13.4714 1.10857C13.4333 1.07048 13.3835 1.04631 13.33 1.03995C12.444 0.920602 11.546 0.920602 10.66 1.03995C10.6053 1.04589 10.5541 1.06969 10.5144 1.10765C10.4746 1.14561 10.4484 1.19563 10.44 1.24995L10.16 2.99995C9.80066 3.07326 9.44656 3.17014 9.09997 3.28995L7.99997 1.91995C7.96307 1.87909 7.91456 1.85048 7.86094 1.83797C7.80731 1.82546 7.75115 1.82964 7.69997 1.84995C6.88198 2.20823 6.10707 2.65774 5.38997 3.18995C5.34697 3.22306 5.3159 3.26926 5.30147 3.32157C5.28704 3.37389 5.29002 3.42948 5.30997 3.47995L5.92997 5.13995C5.65291 5.37874 5.39231 5.63599 5.14997 5.90995L3.47997 5.29995C3.43124 5.27893 3.37673 5.27541 3.3257 5.29C3.27467 5.30458 3.23025 5.33636 3.19997 5.37995C2.6604 6.08138 2.21027 6.84728 1.85997 7.65995C1.84001 7.6861 1.82588 7.71624 1.81856 7.74832C1.81123 7.78039 1.81088 7.81367 1.81751 7.8459C1.82415 7.87813 1.83762 7.90856 1.85702 7.93513C1.87642 7.96171 1.9013 7.98381 1.92997 7.99995L3.29997 9.10995C3.17887 9.45697 3.07869 9.81094 2.99997 10.17L1.24997 10.46C1.19692 10.4713 1.14851 10.4983 1.11105 10.5376C1.07359 10.5768 1.04882 10.6264 1.03997 10.68C0.929954 11.5632 0.929954 12.4567 1.03997 13.34C1.04882 13.3935 1.07359 13.4431 1.11105 13.4823C1.14851 13.5216 1.19692 13.5486 1.24997 13.56L2.99997 13.85C3.07541 14.2088 3.17225 14.5627 3.28997 14.91L1.92997 16C1.88574 16.0321 1.85441 16.0789 1.84158 16.1321C1.82875 16.1852 1.83527 16.2412 1.85997 16.29C2.20729 17.1166 2.65752 17.896 3.19997 18.61C3.22888 18.6551 3.27328 18.6882 3.32484 18.7029C3.3764 18.7176 3.43157 18.713 3.47997 18.69L5.13997 18.08C5.38486 18.3515 5.64529 18.6086 5.91997 18.85L5.29997 20.52C5.28161 20.5706 5.27944 20.6257 5.29377 20.6777C5.3081 20.7297 5.33823 20.7759 5.37997 20.8099C6.08974 21.3424 6.85806 21.792 7.66997 22.15C7.72432 22.1794 7.78739 22.1886 7.84787 22.1757C7.90834 22.1629 7.96227 22.1289 7.99997 22.08L9.10997 20.7C9.45617 20.821 9.81035 20.9179 10.17 20.99L10.47 22.74C10.4763 22.7934 10.5005 22.8432 10.5386 22.8813C10.5767 22.9194 10.6265 22.9436 10.68 22.95C11.5659 23.0699 12.464 23.0699 13.35 22.95C13.4035 22.9436 13.4533 22.9194 13.4914 22.8813C13.5294 22.8432 13.5536 22.7934 13.56 22.74L13.86 20.99C14.2193 20.9166 14.5734 20.8198 14.92 20.7L16.06 22.08C16.0953 22.12 16.1421 22.1482 16.1939 22.1607C16.2458 22.1732 16.3003 22.1695 16.35 22.15C17.1587 21.792 17.9237 21.3424 18.63 20.8099C18.673 20.7768 18.704 20.7306 18.7185 20.6783C18.7329 20.626 18.7299 20.5704 18.71 20.52L18.1 18.86C18.3714 18.6185 18.6285 18.3614 18.87 18.09L20.53 18.7C20.5804 18.7199 20.636 18.7229 20.6884 18.7085C20.7407 18.694 20.7869 18.663 20.82 18.62C21.3524 17.9137 21.802 17.1487 22.16 16.34C22.1795 16.2903 22.1832 16.2358 22.1707 16.1839C22.1582 16.132 22.13 16.0853 22.09 16.05L20.71 14.89C20.82 14.55 20.92 14.19 21 13.83L22.74 13.54C22.7935 13.5336 22.8433 13.5094 22.8814 13.4713C22.9194 13.4332 22.9436 13.3834 22.95 13.33C23.0766 12.4454 23.0934 11.5486 23 10.66ZM17.33 12C17.33 13.0541 17.0174 14.0846 16.4317 14.9611C15.846 15.8377 15.0136 16.5208 14.0397 16.9242C13.0657 17.3276 11.9941 17.4332 10.9601 17.2275C9.92622 17.0219 8.97651 16.5142 8.23109 15.7688C7.48568 15.0234 6.97805 14.0737 6.77239 13.0398C6.56673 12.0059 6.67228 10.9342 7.0757 9.96025C7.47911 8.98632 8.16227 8.15389 9.03878 7.56822C9.9153 6.98255 10.9458 6.66995 12 6.66995C13.4136 6.66995 14.7693 7.2315 15.7689 8.23107C16.7684 9.23064 17.33 10.5863 17.33 12Z" fill="#27AAE1"/>
<path d="M12 12C12.3679 12 12.7275 11.8909 13.0334 11.6866C13.3393 11.4822 13.5777 11.1917 13.7184 10.8518C13.8592 10.512 13.896 10.138 13.8243 9.77716C13.7525 9.41636 13.5754 9.08494 13.3152 8.82481C13.0551 8.56469 12.7237 8.38754 12.3629 8.31577C12.0021 8.244 11.6281 8.28084 11.2882 8.42161C10.9484 8.56239 10.6579 8.80079 10.4535 9.10667C10.2491 9.41254 10.14 9.77216 10.14 10.14C10.1426 10.6325 10.3394 11.1041 10.6877 11.4523C11.0359 11.8006 11.5075 11.9974 12 12Z" fill="#27AAE1"/>
<path d="M12 12.58C10.54 12.58 9.40002 13.38 9.40002 14.39V15C9.39999 15.099 9.43865 15.1942 9.50777 15.2652C9.57688 15.3362 9.67099 15.3773 9.77003 15.38H14.23C14.3308 15.38 14.4275 15.3399 14.4987 15.2687C14.57 15.1974 14.61 15.1007 14.61 15V14.42C14.61 13.38 13.46 12.58 12 12.58Z" fill="#27AAE1"/>
</svg>
