<svg id="Layer_1" data-name="Layer 1" xmlns="http://www.w3.org/2000/svg" viewBox="0 0 24 24"><defs><style>.cls-1{fill:#656567;}</style></defs><path class="cls-1" d="M23,10.66a.25.25,0,0,0-.21-.21L21,10.15a10.44,10.44,0,0,0-.29-1.06L22.07,8a.23.23,0,0,0,.07-.29A10.66,10.66,0,0,0,20.8,5.38a.23.23,0,0,0-.28-.08l-1.66.61c-.25-.27-.51-.53-.78-.77l.63-1.66a.27.27,0,0,0-.09-.29,11.56,11.56,0,0,0-2.28-1.34.26.26,0,0,0-.29.07L14.9,3.3A8.06,8.06,0,0,0,13.83,3l-.29-1.75a.24.24,0,0,0-.21-.21,10,10,0,0,0-2.67,0,.25.25,0,0,0-.22.21L10.16,3a8.36,8.36,0,0,0-1.06.29L8,1.92a.27.27,0,0,0-.3-.07A11.86,11.86,0,0,0,5.39,3.19a.25.25,0,0,0-.08.29l.62,1.66a8.11,8.11,0,0,0-.78.77L3.48,5.3a.23.23,0,0,0-.28.08A10.66,10.66,0,0,0,1.86,7.66.23.23,0,0,0,1.93,8L3.3,9.11A9.19,9.19,0,0,0,3,10.17l-1.75.29a.27.27,0,0,0-.21.22,10.76,10.76,0,0,0,0,2.66.27.27,0,0,0,.21.22L3,13.85a9.19,9.19,0,0,0,.29,1.06L1.93,16a.23.23,0,0,0-.07.29A10.66,10.66,0,0,0,3.2,18.61a.22.22,0,0,0,.28.08l1.66-.61a9.45,9.45,0,0,0,.78.77L5.3,20.52a.26.26,0,0,0,.08.29,11.64,11.64,0,0,0,2.29,1.34A.26.26,0,0,0,8,22.08L9.11,20.7a7.92,7.92,0,0,0,1.06.29l.3,1.75a.24.24,0,0,0,.21.21,9.95,9.95,0,0,0,2.67,0,.24.24,0,0,0,.21-.21l.3-1.75a8.36,8.36,0,0,0,1.06-.29l1.14,1.38a.26.26,0,0,0,.29.07,11.56,11.56,0,0,0,2.28-1.34.25.25,0,0,0,.08-.29l-.61-1.66a9.32,9.32,0,0,0,.77-.77l1.66.61a.25.25,0,0,0,.29-.08,11.56,11.56,0,0,0,1.34-2.28.26.26,0,0,0-.07-.29l-1.38-1.16c.11-.34.21-.7.29-1.06l1.74-.29a.24.24,0,0,0,.21-.21A10.84,10.84,0,0,0,23,10.66ZM17.33,12A5.33,5.33,0,1,1,12,6.67,5.33,5.33,0,0,1,17.33,12Z"/><path class="cls-1" d="M12,12a1.86,1.86,0,1,0-1.86-1.86A1.87,1.87,0,0,0,12,12Z"/><path class="cls-1" d="M12,12.58c-1.46,0-2.6.8-2.6,1.81V15a.38.38,0,0,0,.37.38h4.46a.38.38,0,0,0,.38-.38v-.58C14.61,13.38,13.46,12.58,12,12.58Z"/></svg>