<svg width="24" height="24" viewBox="0 0 24 24" fill="none" xmlns="http://www.w3.org/2000/svg">
<path d="M12 17.625C15.1066 17.625 17.625 15.1066 17.625 12C17.625 8.8934 15.1066 6.375 12 6.375C8.8934 6.375 6.375 8.8934 6.375 12C6.375 15.1066 8.8934 17.625 12 17.625Z" stroke="#656567" stroke-linecap="round" stroke-linejoin="round"/>
<path d="M12 11.625C12.8284 11.625 13.5 10.9534 13.5 10.125C13.5 9.29657 12.8284 8.625 12 8.625C11.1716 8.625 10.5 9.29657 10.5 10.125C10.5 10.9534 11.1716 11.625 12 11.625Z" stroke="#656567" stroke-linecap="round" stroke-linejoin="round"/>
<path d="M14.25 14.4074C14.25 13.6124 13.2412 12.9674 12 12.9674C10.7588 12.9674 9.75 13.6124 9.75 14.4074V14.9999H14.25V14.4074Z" stroke="#656567" stroke-linecap="round" stroke-linejoin="round"/>
<path d="M22.7888 13.3087C22.9044 12.4375 22.9044 11.5549 22.7888 10.6837L20.85 10.3575C20.7623 9.89058 20.6368 9.43158 20.475 8.98495L21.9975 7.72495C21.6481 6.92534 21.205 6.17005 20.6775 5.47495L18.8363 6.15745C18.5293 5.79792 18.1945 5.46314 17.835 5.1562L18.525 3.31495C17.8299 2.78743 17.0746 2.34433 16.275 1.99495L15 3.51745C14.5534 3.35562 14.0944 3.23021 13.6275 3.14245L13.3013 1.2037C12.4301 1.08802 11.5474 1.08802 10.6763 1.2037L10.365 3.14995C9.89814 3.23771 9.43914 3.36312 8.99251 3.52495L7.73251 1.99495C6.9329 2.34433 6.17761 2.78743 5.48251 3.31495L6.16501 5.1562C5.80549 5.46314 5.4707 5.79792 5.16376 6.15745L3.31501 5.47495C2.78749 6.17005 2.34439 6.92534 1.99501 7.72495L3.51751 8.99995C3.35568 9.44658 3.23027 9.90558 3.14251 10.3725L1.20376 10.6987C1.08808 11.5699 1.08808 12.4525 1.20376 13.3237L3.14251 13.65C3.23027 14.1168 3.35568 14.5758 3.51751 15.0225L1.99501 16.2675C2.34439 17.0671 2.78749 17.8224 3.31501 18.5175L5.15626 17.835C5.4632 18.1945 5.79799 18.5293 6.15751 18.8362L5.47501 20.6849C6.17011 21.2125 6.9254 21.6556 7.72501 22.0049L9.00001 20.4824C9.44664 20.6443 9.90564 20.7697 10.3725 20.8574L10.6988 22.7962C11.5699 22.9119 12.4526 22.9119 13.3238 22.7962L13.65 20.8574C14.1169 20.7697 14.5759 20.6443 15.0225 20.4824L16.2825 22.0049C17.0821 21.6556 17.8374 21.2125 18.5325 20.6849L17.85 18.8437C18.2095 18.5368 18.5443 18.202 18.8513 17.8425L20.6925 18.525C21.22 17.8299 21.6631 17.0746 22.0125 16.275L20.4825 15C20.6443 14.5533 20.7698 14.0943 20.8575 13.6275L22.7888 13.3087Z" stroke="#656567" stroke-linecap="round" stroke-linejoin="round"/>
</svg>
