<svg width="18" height="18" viewBox="0 0 18 18" fill="none" xmlns="http://www.w3.org/2000/svg">
<path d="M13.167 2.50065H16.5003C16.7213 2.50065 16.9333 2.58845 17.0896 2.74473C17.2459 2.90101 17.3337 3.11297 17.3337 3.33398V16.6673C17.3337 16.8883 17.2459 17.1003 17.0896 17.2566C16.9333 17.4129 16.7213 17.5007 16.5003 17.5007H1.50033C1.27931 17.5007 1.06735 17.4129 0.91107 17.2566C0.75479 17.1003 0.666992 16.8883 0.666992 16.6673V3.33398C0.666992 3.11297 0.75479 2.90101 0.91107 2.74473C1.06735 2.58845 1.27931 2.50065 1.50033 2.50065H4.83366V0.833984H6.50033V2.50065H11.5003V0.833984H13.167V2.50065ZM15.667 9.16732H2.33366V15.834H15.667V9.16732ZM11.5003 4.16732H6.50033V5.83398H4.83366V4.16732H2.33366V7.50065H15.667V4.16732H13.167V5.83398H11.5003V4.16732ZM4.00033 10.834H5.66699V12.5007H4.00033V10.834ZM8.16699 10.834H9.83366V12.5007H8.16699V10.834ZM12.3337 10.834H14.0003V12.5007H12.3337V10.834Z" fill="#4F5C69"/>
</svg>
