<svg width="24" height="24" viewBox="0 0 24 24" fill="none" xmlns="http://www.w3.org/2000/svg">
<path d="M23.36 9.73002C23.369 9.69053 23.369 9.64952 23.36 9.61002L23.3 9.52003L12.23 0.730025C12.1654 0.676353 12.084 0.646973 12 0.646973C11.916 0.646973 11.8346 0.676353 11.77 0.730025L0.780008 9.45002L0.720008 9.54002C0.711006 9.57952 0.711006 9.62053 0.720008 9.66002V21.48C0.720001 21.9822 0.918806 22.464 1.27296 22.82C1.62712 23.176 2.10783 23.3774 2.61001 23.38H8.59001V12C8.59252 11.9492 8.60522 11.8994 8.62735 11.8536C8.64947 11.8077 8.68058 11.7668 8.71882 11.7333C8.75706 11.6997 8.80165 11.6741 8.84995 11.6581C8.89826 11.6421 8.94928 11.6359 9.00001 11.64H15C15.0991 11.64 15.1943 11.6786 15.2652 11.7478C15.3362 11.8169 15.3774 11.911 15.38 12.01V23.38H21.44C21.9422 23.3774 22.4229 23.176 22.7771 22.82C23.1312 22.464 23.33 21.9822 23.33 21.48V9.74002L23.36 9.73002Z" fill="#27AAE1"/>
<path d="M14.65 12.39H9.34003V23.38H14.65V12.39Z" fill="#27AAE1"/>
</svg>
