<svg id="Layer_1" data-name="Layer 1" xmlns="http://www.w3.org/2000/svg" viewBox="0 0 24 24"><defs><style>.cls-1{fill:#27aae1;}</style></defs><g id="Layer_2" data-name="Layer 2"><path class="cls-1" d="M21.47,23.38H2.53a1.9,1.9,0,0,1-1.89-1.9V9.74a.38.38,0,0,1,.75,0V21.48a1.14,1.14,0,0,0,1.14,1.14H21.47a1.14,1.14,0,0,0,1.14-1.14V9.74a.38.38,0,0,1,.75,0V21.48A1.9,1.9,0,0,1,21.47,23.38Z"/><path class="cls-1" d="M23,10.12a.35.35,0,0,1-.23-.09L12,1.5,1.24,10A.36.36,0,0,1,.72,10a.36.36,0,0,1,.06-.52l11-8.72a.36.36,0,0,1,.46,0l11,8.72a.36.36,0,0,1,.06.52A.35.35,0,0,1,23,10.12Z"/><path class="cls-1" d="M15,23.38H9A.38.38,0,0,1,8.59,23V12A.38.38,0,0,1,9,11.64H15a.38.38,0,0,1,.38.37V23A.38.38,0,0,1,15,23.38Zm-5.69-.76h5.32V12.39H9.34Z"/></g></svg>