<svg width="24" height="24" viewBox="0 0 24 24" fill="none" xmlns="http://www.w3.org/2000/svg">
<path d="M0.999995 10.8501C0.950093 10.8501 0.900679 10.8403 0.854575 10.8212C0.808472 10.8021 0.766581 10.7741 0.731295 10.7388C0.696008 10.7035 0.668018 10.6617 0.648921 10.6155C0.629824 10.5694 0.619995 10.52 0.619995 10.4701V4.79013C0.619994 4.24167 0.728184 3.69861 0.938371 3.19203C1.14856 2.68545 1.45661 2.2253 1.84489 1.83795C2.23317 1.4506 2.69405 1.14365 3.20113 0.934677C3.70822 0.725704 4.25154 0.618814 4.8 0.620129H10.48C10.5808 0.620129 10.6774 0.660165 10.7487 0.731429C10.82 0.802692 10.86 0.899347 10.86 1.00013C10.86 1.10091 10.82 1.19757 10.7487 1.26883C10.6774 1.34009 10.5808 1.38013 10.48 1.38013H4.8C3.89469 1.38013 3.02631 1.73907 2.38522 2.37829C1.74413 3.0175 1.38264 3.88482 1.38 4.79013V10.4701C1.38137 10.5204 1.37249 10.5704 1.35388 10.6172C1.33527 10.6639 1.30733 10.7063 1.27176 10.7419C1.2362 10.7775 1.19376 10.8054 1.14703 10.824C1.1003 10.8426 1.05027 10.8515 0.999995 10.8501Z" fill="#27AAE1"/>
<path d="M23 10.8501C22.9506 10.8501 22.9016 10.8402 22.8561 10.821C22.8105 10.8018 22.7693 10.7737 22.7348 10.7382C22.7003 10.7028 22.6733 10.6608 22.6553 10.6148C22.6373 10.5687 22.6287 10.5195 22.63 10.4701V4.79012C22.6287 4.341 22.5389 3.89653 22.3659 3.4821C22.1928 3.06767 21.9398 2.69138 21.6213 2.37474C21.3027 2.05809 20.925 1.80728 20.5096 1.63662C20.0941 1.46596 19.6491 1.3788 19.2 1.38012H13.52C13.4192 1.38012 13.3226 1.34008 13.2513 1.26882C13.1801 1.19755 13.14 1.1009 13.14 1.00012C13.14 0.899335 13.1801 0.80268 13.2513 0.731417C13.3226 0.660153 13.4192 0.620117 13.52 0.620117H19.2C20.306 0.620117 21.3666 1.05946 22.1487 1.84148C22.9307 2.62351 23.37 3.68416 23.37 4.79012V10.4701C23.37 10.5692 23.3314 10.6644 23.2623 10.7353C23.1932 10.8063 23.0991 10.8475 23 10.8501Z" fill="#27AAE1"/>
<path d="M19.2 23.3504H13.52C13.4706 23.3517 13.4214 23.3431 13.3753 23.3251C13.3293 23.3071 13.2873 23.2801 13.2519 23.2456C13.2165 23.2111 13.1883 23.1699 13.1691 23.1243C13.1499 23.0788 13.14 23.0298 13.14 22.9804C13.14 22.8796 13.1801 22.7829 13.2513 22.7117C13.3226 22.6404 13.4192 22.6004 13.52 22.6004H19.2C20.1053 22.6004 20.9737 22.2414 21.6148 21.6022C22.2559 20.963 22.6174 20.0957 22.62 19.1904V13.5104C22.6187 13.4609 22.6273 13.4118 22.6453 13.3657C22.6632 13.3197 22.6903 13.2777 22.7248 13.2423C22.7593 13.2068 22.8005 13.1787 22.8461 13.1595C22.8916 13.1402 22.9406 13.1304 22.99 13.1304C23.0908 13.1304 23.1875 13.1704 23.2587 13.2417C23.33 13.3129 23.37 13.4096 23.37 13.5104V19.1904C23.3674 20.2946 22.9269 21.3527 22.1451 22.1325C21.3634 22.9124 20.3042 23.3504 19.2 23.3504Z" fill="#27AAE1"/>
<path d="M10.48 23.3504H4.8C3.69578 23.3504 2.63664 22.9124 1.8549 22.1325C1.07316 21.3527 0.632653 20.2946 0.630005 19.1904V13.5104C0.629971 13.4113 0.668631 13.3161 0.737746 13.2451C0.806861 13.1742 0.900966 13.133 1 13.1304C1.04945 13.1304 1.09839 13.1402 1.14395 13.1595C1.1895 13.1787 1.23074 13.2068 1.26523 13.2423C1.29973 13.2777 1.32677 13.3197 1.34476 13.3657C1.36276 13.4118 1.37134 13.4609 1.37 13.5104V19.1904C1.37132 19.6395 1.46108 20.084 1.63416 20.4984C1.80724 20.9128 2.06026 21.2891 2.37877 21.6058C2.69727 21.9224 3.07503 22.1732 3.49046 22.3439C3.9059 22.5145 4.35088 22.6017 4.8 22.6004H10.48C10.5808 22.6004 10.6774 22.6404 10.7487 22.7117C10.82 22.7829 10.86 22.8796 10.86 22.9804C10.86 23.0298 10.8501 23.0788 10.8309 23.1243C10.8117 23.1699 10.7835 23.2111 10.7481 23.2456C10.7127 23.2801 10.6707 23.3071 10.6247 23.3251C10.5786 23.3431 10.5294 23.3517 10.48 23.3504Z" fill="#27AAE1"/>
<path d="M3.27997 10.85C3.18093 10.8474 3.08683 10.8062 3.01771 10.7352C2.9486 10.6643 2.90994 10.5691 2.90997 10.47V5.55002C2.90997 4.8472 3.18917 4.17316 3.68614 3.67619C4.18311 3.17922 4.85715 2.90002 5.55997 2.90002H10.48C10.5343 2.89111 10.59 2.89413 10.6431 2.90888C10.6962 2.92362 10.7454 2.94974 10.7874 2.98541C10.8294 3.02108 10.8632 3.06546 10.8863 3.11547C10.9094 3.16548 10.9214 3.21992 10.9214 3.27502C10.9214 3.33012 10.9094 3.38456 10.8863 3.43457C10.8632 3.48458 10.8294 3.52896 10.7874 3.56463C10.7454 3.6003 10.6962 3.62642 10.6431 3.64116C10.59 3.65591 10.5343 3.65893 10.48 3.65002H5.55997C5.05606 3.65002 4.57279 3.8502 4.21647 4.20652C3.86015 4.56284 3.65997 5.04611 3.65997 5.55002V10.47C3.65997 10.5199 3.65014 10.5693 3.63105 10.6154C3.61195 10.6615 3.58396 10.7034 3.54867 10.7387C3.51339 10.774 3.4715 10.802 3.42539 10.8211C3.37929 10.8402 3.32988 10.85 3.27997 10.85Z" fill="#27AAE1"/>
<path d="M20.72 10.85C20.6701 10.85 20.6207 10.8402 20.5746 10.8211C20.5285 10.802 20.4866 10.774 20.4513 10.7387C20.416 10.7034 20.388 10.6615 20.3689 10.6154C20.3498 10.5693 20.34 10.5199 20.34 10.47V5.55002C20.34 5.04611 20.1398 4.56284 19.7835 4.20652C19.4272 3.8502 18.9439 3.65002 18.44 3.65002H13.52C13.4656 3.65893 13.41 3.65591 13.3569 3.64116C13.3038 3.62642 13.2545 3.6003 13.2125 3.56463C13.1705 3.52896 13.1368 3.48458 13.1137 3.43457C13.0905 3.38456 13.0786 3.33012 13.0786 3.27502C13.0786 3.21992 13.0905 3.16548 13.1137 3.11547C13.1368 3.06546 13.1705 3.02108 13.2125 2.98541C13.2545 2.94974 13.3038 2.92362 13.3569 2.90888C13.41 2.89413 13.4656 2.89111 13.52 2.90002H18.44C19.1428 2.90002 19.8169 3.17922 20.3138 3.67619C20.8108 4.17316 21.09 4.8472 21.09 5.55002V10.47C21.09 10.5691 21.0514 10.6643 20.9823 10.7352C20.9131 10.8062 20.819 10.8474 20.72 10.85Z" fill="#27AAE1"/>
<path d="M18.44 21.0803H13.52C13.4656 21.0892 13.41 21.0862 13.3569 21.0714C13.3038 21.0567 13.2545 21.0306 13.2125 20.9949C13.1705 20.9592 13.1368 20.9148 13.1137 20.8648C13.0905 20.8148 13.0786 20.7604 13.0786 20.7053C13.0786 20.6502 13.0905 20.5957 13.1137 20.5457C13.1368 20.4957 13.1705 20.4514 13.2125 20.4157C13.2545 20.38 13.3038 20.3539 13.3569 20.3391C13.41 20.3244 13.4656 20.3214 13.52 20.3303H18.44C18.9439 20.3303 19.4272 20.1301 19.7835 19.7738C20.1398 19.4175 20.34 18.9342 20.34 18.4303V13.5103C20.3311 13.4559 20.3341 13.4003 20.3489 13.3472C20.3636 13.2941 20.3897 13.2448 20.4254 13.2028C20.4611 13.1608 20.5054 13.1271 20.5554 13.104C20.6055 13.0808 20.6599 13.0688 20.715 13.0688C20.7701 13.0688 20.8245 13.0808 20.8745 13.104C20.9246 13.1271 20.9689 13.1608 21.0046 13.2028C21.0403 13.2448 21.0664 13.2941 21.0811 13.3472C21.0959 13.4003 21.0989 13.4559 21.09 13.5103V18.4303C21.09 19.1331 20.8108 19.8072 20.3138 20.3041C19.8169 20.8011 19.1428 21.0803 18.44 21.0803Z" fill="#27AAE1"/>
<path d="M10.48 21.0803H5.55997C4.85714 21.0803 4.18311 20.8011 3.68614 20.3041C3.18916 19.8072 2.90997 19.1331 2.90997 18.4303V13.5103C2.90106 13.4559 2.90408 13.4003 2.91883 13.3472C2.93357 13.2941 2.95969 13.2448 2.99536 13.2028C3.03103 13.1608 3.07541 13.1271 3.12542 13.104C3.17543 13.0808 3.22987 13.0688 3.28497 13.0688C3.34007 13.0688 3.39451 13.0808 3.44452 13.104C3.49453 13.1271 3.5389 13.1608 3.57458 13.2028C3.61025 13.2448 3.63637 13.2941 3.65111 13.3472C3.66585 13.4003 3.66888 13.4559 3.65997 13.5103V18.4303C3.65997 18.9342 3.86015 19.4175 4.21647 19.7738C4.57278 20.1301 5.05606 20.3303 5.55997 20.3303H10.48C10.5343 20.3214 10.59 20.3244 10.6431 20.3391C10.6962 20.3539 10.7454 20.38 10.7874 20.4157C10.8294 20.4514 10.8632 20.4957 10.8863 20.5457C10.9094 20.5957 10.9214 20.6502 10.9214 20.7053C10.9214 20.7604 10.9094 20.8148 10.8863 20.8648C10.8632 20.9148 10.8294 20.9592 10.7874 20.9949C10.7454 21.0306 10.6962 21.0567 10.6431 21.0714C10.59 21.0862 10.5343 21.0892 10.48 21.0803Z" fill="#27AAE1"/>
<path d="M17.68 5.93018H6.32C6.21922 5.93018 6.12257 5.97021 6.0513 6.04148C5.98004 6.11274 5.94 6.20939 5.94 6.31018V17.6702C5.94 17.771 5.98004 17.8676 6.0513 17.9389C6.12257 18.0101 6.21922 18.0502 6.32 18.0502H17.68C17.7808 18.0502 17.8774 18.0101 17.9487 17.9389C18.02 17.8676 18.06 17.771 18.06 17.6702V6.31018C18.06 6.20939 18.02 6.11274 17.9487 6.04148C17.8774 5.97021 17.7808 5.93018 17.68 5.93018ZM12 15.4002C11.3251 15.4002 10.6655 15.1999 10.1045 14.8248C9.54349 14.4496 9.10643 13.9165 8.84863 13.2928C8.59083 12.6691 8.52389 11.983 8.65627 11.3212C8.78866 10.6595 9.11443 10.0519 9.59233 9.5754C10.0702 9.09891 10.6788 8.77493 11.3409 8.64448C12.003 8.51404 12.689 8.583 13.3119 8.84263C13.9348 9.10226 14.4667 9.54088 14.8402 10.103C15.2137 10.6651 15.412 11.3253 15.41 12.0002C15.4074 12.9028 15.0469 13.7676 14.4077 14.4049C13.7685 15.0423 12.9027 15.4002 12 15.4002Z" fill="#27AAE1"/>
</svg>
