<svg id="Layer_1" data-name="Layer 1" xmlns="http://www.w3.org/2000/svg" viewBox="0 0 24 24"><defs><style>.cls-1{fill:#27aae1;}</style></defs><g id="Layer_2" data-name="Layer 2"><path class="cls-1" d="M17.68,18.06H6.32a.38.38,0,0,1-.38-.38V6.32a.38.38,0,0,1,.38-.38H17.68a.38.38,0,0,1,.38.38V17.68A.38.38,0,0,1,17.68,18.06Zm-11-.75H17.31V6.69H6.69Z"/><path class="cls-1" d="M1,10.86a.38.38,0,0,1-.38-.38V4.8A4.17,4.17,0,0,1,4.8.63h5.68a.38.38,0,0,1,.38.38.37.37,0,0,1-.38.37H4.8A3.43,3.43,0,0,0,1.38,4.8v5.68A.37.37,0,0,1,1,10.86Z"/><path class="cls-1" d="M23,10.86a.37.37,0,0,1-.37-.38V4.8A3.43,3.43,0,0,0,19.2,1.38H13.52A.37.37,0,0,1,13.14,1a.38.38,0,0,1,.38-.38H19.2A4.17,4.17,0,0,1,23.37,4.8v5.68A.38.38,0,0,1,23,10.86Z"/><path class="cls-1" d="M19.2,23.37H13.52a.38.38,0,0,1-.38-.38.37.37,0,0,1,.38-.37H19.2a3.43,3.43,0,0,0,3.42-3.42V13.52a.37.37,0,0,1,.37-.38.38.38,0,0,1,.38.38V19.2A4.17,4.17,0,0,1,19.2,23.37Z"/><path class="cls-1" d="M10.48,23.37H4.8A4.17,4.17,0,0,1,.63,19.2V13.52A.38.38,0,0,1,1,13.14a.37.37,0,0,1,.37.38V19.2A3.43,3.43,0,0,0,4.8,22.62h5.68a.37.37,0,0,1,.38.37A.38.38,0,0,1,10.48,23.37Z"/><path class="cls-1" d="M3.28,10.86a.38.38,0,0,1-.37-.38V5.56A2.65,2.65,0,0,1,5.56,2.91h4.92a.38.38,0,1,1,0,.75H5.56a1.9,1.9,0,0,0-1.9,1.9v4.92A.38.38,0,0,1,3.28,10.86Z"/><path class="cls-1" d="M20.72,10.86a.38.38,0,0,1-.38-.38V5.56a1.9,1.9,0,0,0-1.9-1.9H13.52a.38.38,0,1,1,0-.75h4.92a2.65,2.65,0,0,1,2.65,2.65v4.92A.38.38,0,0,1,20.72,10.86Z"/><path class="cls-1" d="M18.44,21.09H13.52a.38.38,0,1,1,0-.75h4.92a1.9,1.9,0,0,0,1.9-1.9V13.52a.38.38,0,1,1,.75,0v4.92A2.65,2.65,0,0,1,18.44,21.09Z"/><path class="cls-1" d="M10.48,21.09H5.56a2.65,2.65,0,0,1-2.65-2.65V13.52a.38.38,0,1,1,.75,0v4.92a1.9,1.9,0,0,0,1.9,1.9h4.92a.38.38,0,1,1,0,.75Z"/><path class="cls-1" d="M12,15.41A3.41,3.41,0,1,1,15.41,12,3.41,3.41,0,0,1,12,15.41Zm0-6.07A2.66,2.66,0,1,0,14.66,12,2.67,2.67,0,0,0,12,9.34Z"/></g></svg>