<svg id="Layer_1" data-name="Layer 1" xmlns="http://www.w3.org/2000/svg" viewBox="0 0 24 24"><defs><style>.cls-1{fill:#656567;}</style></defs><g id="Layer_2" data-name="Layer 2"><path class="cls-1" d="M1,10.85a.38.38,0,0,1-.38-.38V4.79A4.17,4.17,0,0,1,4.8.62h5.68a.38.38,0,1,1,0,.76H4.8A3.42,3.42,0,0,0,1.38,4.79v5.68A.37.37,0,0,1,1,10.85Z"/><path class="cls-1" d="M23,10.85a.37.37,0,0,1-.37-.38V4.79A3.42,3.42,0,0,0,19.2,1.38H13.52a.38.38,0,0,1,0-.76H19.2a4.17,4.17,0,0,1,4.17,4.17v5.68A.38.38,0,0,1,23,10.85Z"/><path class="cls-1" d="M19.2,23.35H13.52a.37.37,0,0,1-.38-.37.38.38,0,0,1,.38-.38H19.2a3.42,3.42,0,0,0,3.42-3.41V13.51a.37.37,0,0,1,.37-.38.38.38,0,0,1,.38.38v5.68A4.17,4.17,0,0,1,19.2,23.35Z"/><path class="cls-1" d="M10.48,23.35H4.8A4.17,4.17,0,0,1,.63,19.19V13.51A.38.38,0,0,1,1,13.13a.37.37,0,0,1,.37.38v5.68A3.42,3.42,0,0,0,4.8,22.6h5.68a.38.38,0,0,1,.38.38A.37.37,0,0,1,10.48,23.35Z"/><path class="cls-1" d="M3.28,10.85a.38.38,0,0,1-.37-.38V5.55A2.65,2.65,0,0,1,5.56,2.9h4.92a.38.38,0,1,1,0,.75H5.56a1.9,1.9,0,0,0-1.9,1.9v4.92A.38.38,0,0,1,3.28,10.85Z"/><path class="cls-1" d="M20.72,10.85a.38.38,0,0,1-.38-.38V5.55a1.9,1.9,0,0,0-1.9-1.9H13.52a.38.38,0,1,1,0-.75h4.92a2.65,2.65,0,0,1,2.65,2.65v4.92A.38.38,0,0,1,20.72,10.85Z"/><path class="cls-1" d="M18.44,21.08H13.52a.38.38,0,1,1,0-.75h4.92a1.9,1.9,0,0,0,1.9-1.9V13.51a.38.38,0,1,1,.75,0v4.92A2.65,2.65,0,0,1,18.44,21.08Z"/><path class="cls-1" d="M10.48,21.08H5.56a2.65,2.65,0,0,1-2.65-2.65V13.51a.38.38,0,1,1,.75,0v4.92a1.9,1.9,0,0,0,1.9,1.9h4.92a.38.38,0,1,1,0,.75Z"/><path class="cls-1" d="M17.68,5.93H6.32a.38.38,0,0,0-.38.38V17.67a.38.38,0,0,0,.38.38H17.68a.38.38,0,0,0,.38-.38V6.31A.38.38,0,0,0,17.68,5.93ZM12,15.4A3.41,3.41,0,1,1,15.41,12,3.41,3.41,0,0,1,12,15.4Z"/></g></svg>