<svg width="24" height="24" viewBox="0 0 24 24" fill="none" xmlns="http://www.w3.org/2000/svg">
<path d="M16.8681 4.7833H7.13226C5.83027 4.7833 4.7832 5.83043 4.7832 7.13237V16.8682C4.7832 18.1702 5.83032 19.2173 7.13226 19.2173H16.8964C18.1984 19.2173 19.2455 18.1702 19.2455 16.8682V7.10406C19.2171 5.83053 18.17 4.7832 16.8682 4.7832L16.8681 4.7833ZM12.0002 15.538C10.0473 15.538 8.46246 13.9532 8.46246 12.0003C8.46246 10.0474 10.0473 8.43431 12.0002 8.43431C13.9531 8.43431 15.5379 10.0192 15.5379 11.9721C15.5379 13.9249 13.9529 15.538 12.0002 15.538Z" fill="#656567"/>
<path d="M10.0466 22.0757H5.49002C3.53714 22.0757 1.92403 20.4624 1.92403 18.5097L1.92383 13.9531H2.80114V18.5097C2.80114 19.9814 4.01802 21.1983 5.48977 21.1983H10.0464L10.0466 22.0757ZM22.075 10.0474H21.1977V5.49075C21.1977 4.019 19.9808 2.80211 18.509 2.80211H13.9522V1.9248H18.5088C20.4617 1.9248 22.0748 3.53812 22.0748 5.4908L22.075 10.0474Z" fill="#656567"/>
<path d="M10.0471 24H4.18864C1.86778 24 0 22.132 0 19.8114V13.9529H0.87731V19.8114C0.87731 21.6509 2.34906 23.1227 4.18864 23.1227H10.0471V24ZM24 10.0471H23.1227V4.18864C23.1227 2.34911 21.6509 0.87731 19.8114 0.87731H13.5849V0H19.7831C22.1039 0 23.9717 1.86798 23.9717 4.18864V10.0471H24Z" fill="#656567"/>
<path d="M18.5097 22.0757H13.9531V21.1984H18.5097C19.9814 21.1984 21.1983 19.9815 21.1983 18.5098L21.1985 13.9532H22.0758V18.5098C22.0758 20.4909 20.491 22.0758 18.5097 22.0758L18.5097 22.0757ZM2.77379 10.0474H1.89648V5.4908C1.89648 3.53791 3.5098 1.9248 5.46248 1.9248H10.0191V2.80211H5.49088C4.01913 2.80211 2.80225 4.019 2.80225 5.49075V10.0474L2.77379 10.0474Z" fill="#656567"/>
<path d="M19.8113 24H13.9528V23.1227H19.8113C21.6508 23.1227 23.1226 21.6509 23.1226 19.8114V13.9529H24V19.8114C24 22.1038 22.1037 24 19.8113 24ZM0.87731 10.0471H0V4.18864C0 1.86778 1.86798 0 4.18864 0H10.0471V0.87731H4.18864C2.34911 0.87731 0.87731 2.34906 0.87731 4.18864V10.0471Z" fill="#656567"/>
</svg>
