<svg width="99" height="99" viewBox="0 0 99 99" fill="none" xmlns="http://www.w3.org/2000/svg">
<path d="M48.6305 0.002129C61.37 -0.114455 73.4087 4.56039 82.759 13.2096V9.35261C82.759 7.95032 83.8107 6.89775 85.2139 6.89775C86.6162 6.89775 87.6687 7.94946 87.6687 9.35261L87.7853 19.1702C87.7853 20.5725 86.7336 21.625 85.3305 21.625L75.5129 21.7416C74.1106 21.7416 73.058 20.6899 73.058 19.2868C73.058 17.8845 74.1097 16.8319 75.5129 16.8319H79.2534C70.9546 9.11772 60.202 5.0274 48.7481 5.14407C36.8263 5.0283 25.84 9.82046 17.5416 18.2359C5.62063 30.5075 1.76343 48.0399 7.60735 64.1691C8.07451 65.4548 7.37337 66.8571 6.08769 67.3251C5.8537 67.4416 5.50313 67.4416 5.26914 67.4416C4.21742 67.4416 3.28231 66.8571 2.93178 65.8054C-0.223311 57.2735 -0.80791 48.0396 1.06235 39.1571C2.9326 29.9241 7.49087 21.6253 14.0359 14.8464C23.1524 5.37945 35.5415 0.119922 48.6319 0.00262581L48.6305 0.002129ZM49.6822 93.5049C38.2284 93.6214 27.4753 89.5312 19.177 81.817H22.9175C24.3198 81.817 25.3724 80.6479 25.3724 79.3622C25.3724 77.9599 24.2032 76.9073 22.9175 76.9073L13.0999 77.0239C11.6976 77.0239 10.6451 78.193 10.6451 79.4787L10.7616 89.2963C10.7616 90.6986 11.9308 91.7512 13.2165 91.7512C14.6188 91.7512 15.6714 90.5821 15.6714 89.2963V85.4393C24.7879 93.9712 36.5926 98.6468 49.2155 98.6468H49.8C63.0075 98.5302 75.2795 93.27 84.396 83.803C90.941 77.0241 95.4993 68.6086 97.3695 59.4923C99.2398 50.6098 98.5387 41.2595 95.4993 32.7272C95.0321 31.4415 93.6291 30.7403 92.3434 31.2075C91.0577 31.6747 90.3565 33.0777 90.8237 34.3634C96.6676 50.3772 92.8105 67.9096 80.8895 80.1798C72.5907 88.595 61.6041 93.3872 49.6829 93.5039L49.6822 93.5049Z" fill="#A9A9A9"/>
<path d="M64.5014 39.6186H62.5291V33.7332C62.5291 26.1603 56.3359 20 48.7231 20C41.1104 20 34.9172 26.1605 34.9172 33.7332V39.6186H32.9448C30.7688 39.6186 29 41.3775 29 43.5426V74.9326C29 77.0971 30.7682 78.8566 32.9448 78.8566H64.5012C66.6772 78.8566 68.446 77.0977 68.446 74.9326L68.4465 43.5426C68.4465 41.3776 66.6782 39.6186 64.5017 39.6186H64.5014ZM37.547 33.7332C37.547 27.6054 42.563 22.616 48.7231 22.616C54.8832 22.616 59.8992 27.6056 59.8992 33.7332V39.6186H55.9544V33.7332C55.9544 29.7636 52.7132 26.5394 48.7225 26.5394C44.732 26.5394 41.4906 29.7635 41.4906 33.7332V39.6186H37.5458L37.547 33.7332ZM53.3252 39.6186H44.1215V33.7332C44.1215 31.2088 46.186 29.1556 48.7234 29.1556C51.2611 29.1556 53.3252 31.2092 53.3252 33.7332V39.6186ZM65.8163 74.9324C65.8163 75.6518 65.2247 76.2402 64.5016 76.2402L32.9451 76.2407C32.2219 76.2407 31.6304 75.6522 31.6304 74.9328L31.6299 43.5428C31.6299 42.8234 32.2215 42.235 32.9447 42.235H64.5011C65.2243 42.235 65.8158 42.8234 65.8158 43.5428L65.8163 74.9324ZM48.7232 52.6978C46.1855 52.6978 44.1214 54.7514 44.1214 57.2754C44.1214 59.3418 45.5085 61.0944 47.4085 61.6632V64.469C47.4085 65.1884 48.0001 65.7768 48.7232 65.7768C49.4464 65.7768 50.038 65.1884 50.038 64.469V61.6637C51.9379 61.1012 53.3251 59.3486 53.3251 57.2758C53.3251 54.7514 51.261 52.6978 48.7232 52.6978ZM48.7232 59.2374C47.6387 59.2374 46.7508 58.3547 46.7508 57.2754C46.7508 56.1965 47.6382 55.3134 48.7232 55.3134C49.8078 55.3134 50.6956 56.196 50.6956 57.2754C50.6956 58.3547 49.8078 59.2374 48.7232 59.2374ZM48.7232 46.1582C41.4716 46.1582 35.5747 52.0239 35.5747 59.2374C35.5747 66.4508 41.4716 72.3166 48.7232 72.3166C55.9749 72.3166 61.8717 66.4508 61.8717 59.2374C61.8717 52.0239 55.9749 46.1582 48.7232 46.1582ZM48.7232 69.7007C42.9249 69.7007 38.2042 65.0054 38.2042 59.2371C38.2042 53.4693 42.9244 48.7735 48.7232 48.7735C54.5216 48.7735 59.2423 53.4688 59.2423 59.2371C59.2423 65.0049 54.5216 69.7007 48.7232 69.7007Z" fill="#A9A9A9"/>
</svg>
