<svg width="64" height="96" viewBox="0 0 64 96" fill="none" xmlns="http://www.w3.org/2000/svg">
<path d="M57.5994 31.9995H54.3993V22.3999C54.3993 10.048 44.3511 0 31.9998 0C19.6485 0 9.60035 10.0483 9.60035 22.3999V31.9995H6.40023C2.86984 31.9995 0 34.8684 0 38.3998V89.5996C0 93.1301 2.86889 96 6.40023 96H57.599C61.1294 96 63.9993 93.1311 63.9993 89.5996L64 38.3998C64 34.8686 61.1311 31.9995 57.5998 31.9995H57.5994ZM13.8671 22.3999C13.8671 12.4051 22.0054 4.26684 31.9998 4.26684C41.9942 4.26684 50.1325 12.4053 50.1325 22.3999V31.9995H43.7323V22.3999C43.7323 15.9253 38.4736 10.6662 31.9989 10.6662C25.5243 10.6662 20.2654 15.9251 20.2654 22.3999V31.9995H13.8652L13.8671 22.3999ZM39.4665 31.9995H24.5339V22.3999C24.5339 18.2824 27.8835 14.9335 32.0002 14.9335C36.1176 14.9335 39.4665 18.2832 39.4665 22.3999V31.9995ZM59.7327 89.5993C59.7327 90.7726 58.7729 91.7324 57.5996 91.7324L6.4008 91.7331C5.22746 91.7331 4.26771 90.7733 4.26771 89.6L4.26696 38.4002C4.26696 37.2268 5.22677 36.2671 6.40006 36.2671H57.5989C58.7722 36.2671 59.7319 37.2269 59.7319 38.4002L59.7327 89.5993ZM32 53.3327C27.8826 53.3327 24.5337 56.6824 24.5337 60.7992C24.5337 64.1696 26.7843 67.0283 29.8669 67.9561V72.5327C29.8669 73.706 30.8267 74.6658 32 74.6658C33.1733 74.6658 34.1331 73.706 34.1331 72.5327V67.9569C37.2157 67.0395 39.4663 64.1809 39.4663 60.7999C39.4663 56.6824 36.1174 53.3327 32 53.3327ZM32 63.9994C30.2404 63.9994 28.7999 62.5596 28.7999 60.7992C28.7999 59.0395 30.2396 57.599 32 57.599C33.7596 57.599 35.2001 59.0387 35.2001 60.7992C35.2001 62.5596 33.7597 63.9994 32 63.9994ZM32 42.6661C20.2346 42.6661 10.6672 52.2337 10.6672 63.9994C10.6672 75.765 20.2346 85.3326 32 85.3326C43.7654 85.3326 53.3328 75.765 53.3328 63.9994C53.3328 52.2337 43.7654 42.6661 32 42.6661ZM32 81.066C22.5924 81.066 14.9334 73.4075 14.9334 63.999C14.9334 54.5912 22.5917 46.932 32 46.932C41.4076 46.932 49.0667 54.5904 49.0667 63.999C49.0667 73.4068 41.4076 81.066 32 81.066Z" fill="#A9A9A9"/>
</svg>
