<svg width="18" height="18" viewBox="0 0 18 18" fill="none" xmlns="http://www.w3.org/2000/svg">
<path d="M8.61499 11.7226C8.49023 11.8478 8.49023 12.0511 8.61499 12.1763C8.73645 12.2961 8.94697 12.2961 9.06843 12.1752L12.017 9.22652C12.1418 9.1013 12.1418 8.89802 12.017 8.7728L12.0319 8.75853C11.8219 8.57835 11.2009 7.95654 9.06181 5.81803C8.94532 5.70543 8.73589 5.70543 8.61499 5.82352C8.49244 5.94656 8.49079 6.14871 8.61169 6.27341L11.0184 8.67942H0.320404C0.143969 8.67942 0 8.82279 0 8.99966C0 9.17653 0.144004 9.3199 0.320404 9.3199L11.0173 9.32046L8.61499 11.7226Z" fill="#27AAE1"/>
<path d="M17.1586 6.10352e-05H5.68738C5.46314 6.10352e-05 5.25153 0.0873888 5.09272 0.247244C4.93387 0.406009 4.8465 0.616945 4.8465 0.842155V5.00759C4.8465 5.18446 4.98994 5.32783 5.16637 5.32783C5.34281 5.32783 5.48625 5.18446 5.48625 5.00759V0.641098H17.3598V17.3589H5.48625V12.9919C5.48625 12.815 5.34281 12.6717 5.16637 12.6717C4.98994 12.6717 4.8465 12.815 4.8465 12.9919V17.1579C4.8465 17.6221 5.22353 18 5.68738 18H17.1586C17.6225 18 18.0001 17.6221 18.0001 17.1579V0.842155C18.0001 0.377989 17.6225 6.10352e-05 17.1586 6.10352e-05Z" fill="#27AAE1"/>
</svg>
