<svg id="Layer_1" data-name="Layer 1" xmlns="http://www.w3.org/2000/svg" viewBox="0 0 24 24"><defs><style>.cls-1{fill:#656567;}</style></defs><g id="Layer_2" data-name="Layer 2"><path class="cls-1" d="M18.82,1.38a3.8,3.8,0,1,0,3.8,3.8A3.8,3.8,0,0,0,18.82,1.38Z"/><path class="cls-1" d="M2.91,7.45V20A1.14,1.14,0,0,0,4,21.09H16.55A1.14,1.14,0,0,0,17.68,20V9.56a4.54,4.54,0,0,1-3.24-3.24H4A1.14,1.14,0,0,0,2.91,7.45Z"/><path class="cls-1" d="M19.2,9.68V21.1a1.53,1.53,0,0,1-1.52,1.52H2.91A1.53,1.53,0,0,1,1.38,21.1V6.32A1.53,1.53,0,0,1,2.91,4.8H14.32a3.67,3.67,0,0,1,.12-.75H2.91A2.27,2.27,0,0,0,.63,6.32V21.1a2.28,2.28,0,0,0,2.28,2.27H17.68A2.27,2.27,0,0,0,20,21.1V9.56A4.52,4.52,0,0,1,19.2,9.68Z"/></g></svg>