<svg width="24" height="24" viewBox="0 0 24 24" fill="none" xmlns="http://www.w3.org/2000/svg">
<path d="M18.75 9.375C21.0282 9.375 22.875 7.52817 22.875 5.25C22.875 2.97183 21.0282 1.125 18.75 1.125C16.4718 1.125 14.625 2.97183 14.625 5.25C14.625 7.52817 16.4718 9.375 18.75 9.375Z" stroke="#656567" stroke-miterlimit="10" stroke-linecap="round"/>
<path d="M19.5 9.375V21C19.5 21.4973 19.3025 21.9742 18.9508 22.3258C18.5992 22.6775 18.1223 22.875 17.625 22.875H3C2.50272 22.875 2.02581 22.6775 1.67417 22.3258C1.32254 21.9742 1.125 21.4973 1.125 21V6.375C1.125 5.87772 1.32254 5.40081 1.67417 5.04917C2.02581 4.69754 2.50272 4.5 3 4.5H14.625" stroke="#656567" stroke-linecap="round" stroke-linejoin="round"/>
<path d="M17.25 9.375V19.875C17.25 20.0739 17.171 20.2647 17.0303 20.4053C16.8897 20.546 16.6989 20.625 16.5 20.625H4.125C3.92609 20.625 3.73532 20.546 3.59467 20.4053C3.45402 20.2647 3.375 20.0739 3.375 19.875V7.5C3.375 7.30109 3.45402 7.11032 3.59467 6.96967C3.73532 6.82902 3.92609 6.75 4.125 6.75H14.625" stroke="#656567" stroke-miterlimit="10" stroke-linecap="round"/>
</svg>
