<svg width="24" height="24" viewBox="0 0 24 24" fill="none" xmlns="http://www.w3.org/2000/svg">
<path d="M18.82 1.38C18.0685 1.38 17.3338 1.60287 16.7089 2.02042C16.0839 2.43797 15.5969 3.03145 15.3093 3.72581C15.0217 4.42017 14.9464 5.18422 15.093 5.92135C15.2397 6.65848 15.6016 7.33557 16.133 7.86701C16.6645 8.39845 17.3416 8.76037 18.0787 8.90699C18.8158 9.05361 19.5799 8.97836 20.2742 8.69075C20.9686 8.40313 21.5621 7.91608 21.9796 7.29117C22.3972 6.66626 22.62 5.93157 22.62 5.18C22.62 4.17218 22.2197 3.20564 21.507 2.493C20.7944 1.78036 19.8278 1.38 18.82 1.38Z" fill="#27AAE1"/>
<path d="M2.91003 7.44995V19.9999C2.92229 20.2851 3.04106 20.5553 3.24288 20.7571C3.4447 20.9589 3.71488 21.0777 4.00003 21.0899H16.55C16.8422 21.0877 17.1223 20.9733 17.3326 20.7705C17.5429 20.5676 17.6672 20.2918 17.68 19.9999V9.55995C16.9012 9.35572 16.1907 8.94803 15.6213 8.37868C15.052 7.80933 14.6443 7.0988 14.44 6.31995H4.00003C3.70816 6.33275 3.43234 6.45713 3.22951 6.6674C3.02668 6.87768 2.91232 7.1578 2.91003 7.44995Z" fill="#27AAE1"/>
<path d="M19.2 9.67995V21.0999C19.1974 21.5023 19.0364 21.8874 18.7519 22.1719C18.4674 22.4563 18.0823 22.6173 17.68 22.6199H2.91001C2.50595 22.62 2.1183 22.4601 1.83165 22.1754C1.54501 21.8906 1.38265 21.504 1.38 21.0999V6.31995C1.38265 5.9159 1.54501 5.52931 1.83165 5.24453C2.1183 4.95976 2.50595 4.79994 2.91001 4.79995H14.32C14.334 4.54647 14.3742 4.29513 14.44 4.04995H2.91001C2.61106 4.04863 2.31481 4.10638 2.03824 4.21986C1.76168 4.33335 1.51025 4.50035 1.2984 4.71127C1.08655 4.92219 0.918453 5.17288 0.80375 5.44894C0.689047 5.725 0.630002 6.021 0.630005 6.31995V21.0999C0.632649 21.7029 0.87403 22.2803 1.30133 22.7057C1.72862 23.1311 2.30704 23.37 2.91001 23.3699H17.68C17.9823 23.3766 18.2829 23.3228 18.5641 23.2117C18.8453 23.1006 19.1014 22.9345 19.3176 22.723C19.5337 22.5116 19.7054 22.2591 19.8226 21.9803C19.9397 21.7016 20.0001 21.4023 20 21.0999V9.55995C19.7375 9.62378 19.4697 9.66394 19.2 9.67995Z" fill="#27AAE1"/>
</svg>
