<svg width="24" height="24" viewBox="0 0 24 24" fill="none" xmlns="http://www.w3.org/2000/svg">
<path fill-rule="evenodd" clip-rule="evenodd" d="M19.4006 0.0465134C18.4325 0.221402 17.4947 0.825859 16.9069 1.65379C16.6655 1.99384 16.4306 2.50448 16.3225 2.92459C16.2112 3.35703 16.1739 3.97321 16.2325 4.41322C16.3425 5.24024 16.7515 6.0596 17.3515 6.65503C17.9117 7.21089 18.571 7.56391 19.3651 7.73317C19.716 7.80797 20.4978 7.80622 20.8521 7.72986C22.1678 7.44619 23.213 6.58032 23.7201 5.35377C24.0562 4.54084 24.0919 3.53847 23.8149 2.69002C23.4872 1.68631 22.7655 0.85715 21.8167 0.394117C21.4133 0.197306 21.1611 0.11424 20.7499 0.0428393C20.4124 -0.0157937 19.7352 -0.0139261 19.4006 0.0465134ZM0.852076 1.69822C0.509229 1.7902 0.212258 2.05179 0.0807468 2.37766L0.0102812 2.55224L0.0019011 12.5796C-0.00390987 19.5317 0.00346098 22.6726 0.0259402 22.8212C0.107049 23.3571 0.469011 23.7839 0.976461 23.942C1.15758 23.9984 1.43424 24 11.173 24C21.1146 24 21.1846 23.9996 21.3824 23.9384C21.779 23.8158 22.1377 23.456 22.2607 23.0572C22.3204 22.8636 22.3213 22.7526 22.3213 15.6349C22.3213 9.86582 22.3136 8.4123 22.2831 8.42541C21.9352 8.57467 21.6775 8.67087 21.4723 8.72813L21.2208 8.79827L21.2206 15.7394C21.2204 20.7608 21.2109 22.7012 21.1864 22.7552C21.1677 22.7962 21.1189 22.8451 21.0779 22.8638C20.9683 22.9137 1.36362 22.9121 1.26985 22.8622C1.23312 22.8426 1.1863 22.8047 1.16581 22.778C1.13669 22.74 1.12834 20.5475 1.12758 12.7557L1.1266 2.782L8.16432 2.77428L15.202 2.76657L15.2768 2.50632C15.3372 2.29606 15.4774 1.92002 15.5822 1.68717C15.596 1.65643 14.1435 1.64923 8.30953 1.65104C2.00332 1.653 0.996953 1.65937 0.852076 1.69822ZM2.65956 3.91479C2.46398 3.96103 2.3043 4.12584 2.25689 4.33043C2.21689 4.50315 2.22007 21.1592 2.26013 21.3332C2.30099 21.5106 2.38944 21.6301 2.53481 21.7044C2.65207 21.7642 2.74618 21.7649 11.1579 21.7649C18.3114 21.7649 19.6781 21.7582 19.7609 21.7227C19.8799 21.6718 20.0119 21.5358 20.0562 21.4185C20.0788 21.3586 20.0887 19.4397 20.0887 15.1366V8.94092L19.8823 8.92261C19.1369 8.85654 18.6433 8.7415 18.1084 8.50924C16.3643 7.75188 15.2154 6.10816 15.0842 4.18264L15.0639 3.88412L8.91335 3.88724C5.53058 3.88898 2.71636 3.90138 2.65956 3.91479Z" fill="#656567"/>
</svg>
