<svg width="32" height="32" viewBox="0 0 32 32" fill="none" xmlns="http://www.w3.org/2000/svg">
<path d="M31 23.3799V27.8799C31.0017 28.2976 30.9161 28.7112 30.7488 29.0939C30.5814 29.4767 30.336 29.8203 30.0281 30.1027C29.7203 30.3851 29.3569 30.6001 28.9611 30.734C28.5654 30.8678 28.1461 30.9175 27.73 30.8799C23.1143 30.3784 18.6805 28.8011 14.785 26.2749C11.1608 23.9719 8.08803 20.8992 5.78502 17.2749C3.24999 13.3617 1.67239 8.90639 1.18002 4.2699C1.14254 3.8551 1.19183 3.43704 1.32477 3.04234C1.45771 2.64763 1.67138 2.28493 1.95217 1.97733C2.23296 1.66973 2.57473 1.42397 2.95571 1.25568C3.33669 1.0874 3.74853 1.00029 4.16502 0.999901H8.66502C9.39298 0.992737 10.0987 1.25052 10.6507 1.7252C11.2026 2.19988 11.5631 2.85907 11.665 3.5799C11.855 5.02 12.2072 6.43399 12.715 7.7949C12.9168 8.33179 12.9605 8.91527 12.8409 9.47622C12.7212 10.0372 12.4433 10.5521 12.04 10.9599L10.135 12.8649C12.2704 16.6202 15.3797 19.7296 19.135 21.8649L21.04 19.9599C21.4479 19.5566 21.9628 19.2787 22.5237 19.159C23.0846 19.0394 23.6681 19.0831 24.205 19.2849C25.5659 19.7927 26.9799 20.145 28.42 20.3349C29.1487 20.4377 29.8141 20.8047 30.2898 21.3661C30.7655 21.9276 31.0183 22.6443 31 23.3799Z" stroke="black" stroke-opacity="0.85" stroke-width="2" stroke-linecap="round" stroke-linejoin="round"/>
</svg>
