<svg width="18" height="18" viewBox="0 0 18 18" fill="none" xmlns="http://www.w3.org/2000/svg">
<path d="M10.372 18H7.62798C7.17141 18 6.78901 17.6867 6.7218 17.2587L6.47613 15.7255C6.45295 15.5776 6.34634 15.4497 6.20265 15.3923C5.62789 15.1651 5.08557 14.8651 4.58728 14.5032C4.45982 14.4106 4.29527 14.3885 4.14462 14.4437L2.62427 15.0085C2.19784 15.1673 1.72505 15.0085 1.4956 14.6312L0.123582 12.3699C-0.103543 11.9926 -0.0108391 11.5227 0.346072 11.2514L1.61844 10.2829C1.74127 10.1902 1.80384 10.038 1.7853 9.89018C1.7459 9.59676 1.72505 9.29673 1.72505 9.0011C1.72505 8.70768 1.7459 8.40765 1.7853 8.11202C1.80616 7.9598 1.74359 7.81419 1.61844 7.71712L0.346072 6.74862C-0.00620385 6.48168 -0.101226 6.00073 0.123582 5.6301L1.4956 3.36879C1.72505 2.99154 2.20015 2.8327 2.62427 2.99154L4.14462 3.55632C4.29295 3.61147 4.45982 3.58941 4.58728 3.49675C5.08325 3.13494 5.62789 2.83491 6.20265 2.60767C6.34866 2.55031 6.45295 2.42236 6.47613 2.27454L6.7218 0.741267C6.79133 0.311067 7.17141 0 7.62798 0H10.3697C10.8263 0 11.2087 0.313274 11.2759 0.741267L11.5216 2.27454C11.5447 2.42236 11.6513 2.55031 11.795 2.60767C12.3698 2.83491 12.9121 3.13494 13.4104 3.49675C13.5355 3.58941 13.7047 3.61147 13.8531 3.55632L15.3734 2.99154C15.7998 2.8327 16.2726 2.99154 16.5021 3.36879L17.8741 5.6301C18.0989 6.00073 18.0039 6.48168 17.6516 6.74862L16.3792 7.71712C16.2541 7.81199 16.1915 7.9598 16.2124 8.10982C16.2518 8.40103 16.2726 8.70107 16.2726 8.9989C16.2726 9.29893 16.2518 9.59676 16.2124 9.88798C16.1915 10.0402 16.2541 10.1858 16.3792 10.2807L17.6539 11.2514C18.0108 11.5227 18.1035 11.9926 17.8764 12.3699L16.5044 14.6312C16.275 15.0085 15.7998 15.1673 15.3757 15.0085L13.8554 14.4437C13.7071 14.3885 13.5402 14.4106 13.4127 14.5032C12.9144 14.8651 12.3721 15.1651 11.7973 15.3923C11.6513 15.4497 11.547 15.5776 11.5239 15.7255L11.2782 17.2587C11.2087 17.6889 10.8286 18 10.372 18ZM4.30685 13.9716C4.50617 13.9716 4.70548 14.0333 4.86771 14.1503C5.33355 14.49 5.84343 14.7702 6.38111 14.9842C6.67544 15.1011 6.88866 15.3592 6.93502 15.6593L7.18068 17.1925C7.21545 17.4065 7.40317 17.561 7.6303 17.561H10.372C10.5991 17.561 10.7869 17.4065 10.8216 17.1925L11.0673 15.6593C11.116 15.3592 11.3269 15.1011 11.6212 14.9842C12.1589 14.7702 12.6688 14.49 13.1323 14.1525C13.3849 13.9672 13.7279 13.9208 14.0246 14.0311L15.5449 14.5959C15.7558 14.6753 15.9899 14.5959 16.1035 14.4106L17.4755 12.1493C17.589 11.9618 17.5427 11.7301 17.3665 11.5955L16.0919 10.6248C15.8392 10.4329 15.7141 10.1373 15.7558 9.83062C15.7929 9.55926 15.8114 9.27908 15.8114 8.9989C15.8114 8.72092 15.7929 8.44074 15.7558 8.16718C15.7141 7.86052 15.8416 7.5649 16.0919 7.37296L17.3642 6.40446C17.538 6.27209 17.5867 6.03383 17.4755 5.85072L16.1035 3.58941C15.9899 3.40409 15.7558 3.32467 15.5449 3.40409L14.0246 3.96887C13.7279 4.07918 13.3849 4.03285 13.1323 3.84753C12.6664 3.50778 12.1566 3.2276 11.6212 3.01581C11.3269 2.89888 11.1137 2.64076 11.0673 2.34073L10.8216 0.807452C10.7869 0.593455 10.5991 0.439024 10.372 0.439024H7.62798C7.40085 0.439024 7.21313 0.593455 7.17836 0.807452L6.9327 2.34073C6.88403 2.64076 6.67313 2.89888 6.37879 3.01581C5.84111 3.22981 5.33124 3.50999 4.86771 3.84753C4.61046 4.03505 4.27673 4.07918 3.97544 3.96887L2.45509 3.40409C2.24419 3.32467 2.01011 3.40409 1.89655 3.58941L0.524527 5.85072C0.413282 6.03383 0.459634 6.27209 0.633454 6.40446L1.90814 7.37517C2.15612 7.5649 2.28591 7.86935 2.24419 8.16938C2.20711 8.44736 2.18857 8.72754 2.18857 9.0011C2.18857 9.27687 2.20711 9.55705 2.24419 9.83282C2.28359 10.1351 2.15612 10.4395 1.90814 10.627L0.635772 11.5955C0.459634 11.7301 0.413282 11.964 0.526844 12.1493L1.89887 14.4106C2.01243 14.5981 2.24651 14.6753 2.45741 14.5959L3.97775 14.0311C4.08205 13.9914 4.19561 13.9716 4.30685 13.9716Z" fill="#707070"/>
<path d="M8.99996 12.3125C7.08099 12.3125 5.51892 10.8256 5.51892 8.99888C5.51892 7.17219 7.08099 5.68524 8.99996 5.68524C10.9189 5.68524 12.481 7.17219 12.481 8.99888C12.481 10.8256 10.9189 12.3125 8.99996 12.3125ZM8.99996 6.12647C7.33592 6.12647 5.98244 7.41487 5.98244 8.99888C5.98244 10.5829 7.33592 11.8713 8.99996 11.8713C10.664 11.8713 12.0175 10.5829 12.0175 8.99888C12.0175 7.41487 10.664 6.12647 8.99996 6.12647Z" fill="#707070"/>
</svg>
