<svg width="24" height="24" viewBox="0 0 24 24" fill="none" xmlns="http://www.w3.org/2000/svg">
<path d="M4.00002 8.11C3.95133 8.11136 3.90292 8.10224 3.85806 8.08326C3.81321 8.06428 3.77295 8.03589 3.74002 8C3.70464 7.96552 3.67652 7.92432 3.65732 7.8788C3.63813 7.83329 3.62823 7.78439 3.62823 7.735C3.62823 7.6856 3.63813 7.6367 3.65732 7.59119C3.67652 7.54568 3.70464 7.50447 3.74002 7.47C5.9293 5.28813 8.89415 4.06299 11.985 4.06299C15.0759 4.06299 18.0407 5.28813 20.23 7.47C20.3003 7.54028 20.3398 7.6356 20.3398 7.735C20.3398 7.83439 20.3003 7.92972 20.23 8C20.1597 8.07028 20.0644 8.10976 19.965 8.10976C19.8656 8.10976 19.7703 8.07028 19.7 8C17.6514 5.95858 14.8771 4.81233 11.985 4.81233C9.0929 4.81233 6.31867 5.95858 4.27002 8C4.23557 8.03666 4.19361 8.06547 4.14702 8.08445C4.10042 8.10343 4.05029 8.11215 4.00002 8.11Z" fill="#27AAE1"/>
<path d="M22.4 5.68005C22.3513 5.68141 22.3029 5.67229 22.258 5.65332C22.2132 5.63434 22.1729 5.60594 22.14 5.57005C19.4481 2.88562 15.8016 1.37814 12 1.37814C8.19837 1.37814 4.55187 2.88562 1.86 5.57005C1.82552 5.60543 1.78432 5.63355 1.7388 5.65275C1.69329 5.67195 1.64439 5.68184 1.595 5.68184C1.5456 5.68184 1.4967 5.67195 1.45119 5.65275C1.40568 5.63355 1.36447 5.60543 1.33 5.57005C1.26323 5.49796 1.22614 5.40332 1.22614 5.30505C1.22614 5.20679 1.26323 5.11215 1.33 5.04005C4.1572 2.20985 7.99135 0.61629 11.9917 0.608791C15.9921 0.601293 19.8322 2.18047 22.67 5.00005C22.7054 5.03453 22.7335 5.07574 22.7527 5.12125C22.7719 5.16676 22.7818 5.21566 22.7818 5.26505C22.7818 5.31445 22.7719 5.36335 22.7527 5.40886C22.7335 5.45437 22.7054 5.49558 22.67 5.53005C22.6395 5.57405 22.5992 5.61044 22.5524 5.63645C22.5056 5.66245 22.4535 5.67737 22.4 5.68005Z" fill="#27AAE1"/>
<path d="M16.23 18C16.1529 18 16.0777 17.9759 16.015 17.9311C15.9522 17.8862 15.905 17.8229 15.88 17.75L14 12.47L11.63 20.47C11.609 20.5414 11.5675 20.605 11.5106 20.653C11.4537 20.701 11.3839 20.7313 11.31 20.74C11.2426 20.7372 11.177 20.7174 11.1193 20.6824C11.0616 20.6474 11.0137 20.5984 10.98 20.54L8.52003 15.89L7.52003 17.75C7.48828 17.8093 7.44054 17.8586 7.3822 17.8922C7.32387 17.9258 7.25729 17.9423 7.19003 17.94H4.59003C5.08712 19.5157 6.07355 20.8919 7.40606 21.8687C8.73857 22.8456 10.3478 23.3723 12 23.3723C13.6523 23.3723 15.2615 22.8456 16.594 21.8687C17.9265 20.8919 18.9129 19.5157 19.41 17.94L16.23 18Z" fill="#27AAE1"/>
<path d="M6.99998 17.19L8.19998 14.92C8.22824 14.8571 8.27493 14.8043 8.33386 14.7686C8.39279 14.7329 8.46119 14.7159 8.52998 14.72C8.59783 14.7208 8.66422 14.7398 8.72226 14.775C8.78029 14.8101 8.82784 14.8602 8.85998 14.92L11.19 19.34L13.61 11.16C13.6315 11.0833 13.6772 11.0156 13.7402 10.9669C13.8033 10.9183 13.8804 10.8913 13.96 10.89C14.0395 10.8901 14.1172 10.914 14.1831 10.9585C14.249 11.0031 14.3002 11.0662 14.33 11.14L16.5 17.2H19.61C19.7142 16.6729 19.7678 16.1372 19.77 15.6C19.77 13.5392 18.9514 11.5629 17.4942 10.1057C16.037 8.64858 14.0607 7.82996 12 7.82996C9.93925 7.82996 7.96292 8.64858 6.50576 10.1057C5.0486 11.5629 4.22998 13.5392 4.22998 15.6C4.23167 16.1339 4.28526 16.6664 4.38998 17.19H6.99998Z" fill="#27AAE1"/>
</svg>
