<svg width="24" height="24" viewBox="0 0 24 24" fill="none" xmlns="http://www.w3.org/2000/svg">
<path d="M19.875 7.78508C17.7822 5.69297 14.9441 4.5177 11.985 4.5177C9.0258 4.5177 6.18777 5.69297 4.09497 7.78508" stroke="#656567" stroke-linecap="round" stroke-linejoin="round"/>
<path d="M22.2862 5.38502C20.9355 4.03413 19.3319 2.96253 17.5669 2.23143C15.802 1.50032 13.9104 1.12402 12 1.12402C10.0896 1.12402 8.19799 1.50032 6.43306 2.23143C4.66814 2.96253 3.06451 4.03413 1.71375 5.38502" stroke="#656567" stroke-linecap="round" stroke-linejoin="round"/>
<path d="M12 22.875C16.0386 22.875 19.3125 19.6011 19.3125 15.5625C19.3125 11.5239 16.0386 8.25 12 8.25C7.96142 8.25 4.6875 11.5239 4.6875 15.5625C4.6875 19.6011 7.96142 22.875 12 22.875Z" stroke="#656567" stroke-miterlimit="10"/>
<path d="M5.04749 17.505H7.23749L8.56499 15.06L11.2912 20.2312L13.95 11.2725L16.185 17.5087H18.9487" stroke="#656567" stroke-linecap="round" stroke-linejoin="round"/>
</svg>
