<svg width="24" height="27" viewBox="0 0 24 27" fill="none" xmlns="http://www.w3.org/2000/svg">
<path fill-rule="evenodd" clip-rule="evenodd" d="M10.3541 0.033066C6.48499 0.483003 3.35711 1.84962 0.586543 4.30075L0 4.81969L0.743899 5.55196L1.48774 6.28422L2.08191 5.76823C4.43659 3.72341 7.06135 2.54956 10.1906 2.1417C11.0077 2.03522 12.7863 2.02109 13.6232 2.11439C16.7753 2.46599 19.6941 3.77004 22.0667 5.88669L22.5279 6.29814L23.2639 5.57498L24 4.85181L23.7835 4.63163C23.488 4.33116 22.682 3.65558 22.1331 3.24831C20.4237 1.98008 18.1317 0.918434 16.0751 0.442265C14.6052 0.101962 13.9171 0.0232697 12.2338 0.00314159C11.4247 -0.00654772 10.5788 0.00694237 10.3541 0.033066ZM11.471 4.08127C10.9243 4.10879 9.96895 4.21392 9.53676 4.29417C7.18171 4.7312 4.83673 5.8883 3.1074 7.46653L2.69875 7.83949L3.44701 8.57834L4.19532 9.31719L4.455 9.07191C5.99669 7.616 8.13538 6.59819 10.3647 6.25933C11.114 6.14547 12.7672 6.13064 13.487 6.23139C15.7077 6.54209 17.6974 7.44823 19.4049 8.92652L19.8457 9.30815L20.5893 8.57417L21.333 7.84024L21.0333 7.57156C18.5629 5.35657 15.6997 4.20081 12.3973 4.08566C12.0676 4.0742 11.6508 4.07222 11.471 4.08127ZM10.6062 9.26982C7.27423 9.77891 4.47587 12.1017 3.4105 15.2427C3.04321 16.3256 2.975 16.7791 2.98121 18.0987C2.9848 18.8678 3.01248 19.3971 3.06103 19.6244L3.13541 19.9723L4.18388 19.9869L5.2323 20.0014L5.50087 19.6389C5.64858 19.4395 6.47949 18.2887 7.34735 17.0816C8.2152 15.8744 8.94379 14.8868 8.9664 14.8868C8.99642 14.8868 10.5196 20.8105 10.6384 21.3891C10.6472 21.4322 11.3015 18.7396 12.0923 15.4057C12.883 12.0717 13.5168 9.3309 13.5007 9.315C13.3629 9.17972 11.3969 9.14905 10.6062 9.26982ZM14.5034 10.8592C14.7401 11.6611 15.443 14.0396 16.0652 16.1448L17.1965 19.9723L19.032 19.9864L20.8674 20.0005L20.8945 19.8793C20.989 19.4552 21.0405 19.0332 21.0693 18.4467C21.2223 15.3268 19.5942 12.2602 16.881 10.558C16.1804 10.1185 14.9381 9.59406 14.2159 9.43298L14.0729 9.40108L14.5034 10.8592ZM12.4458 20.7119L10.9707 26.9315L11.4388 26.9804C12.0454 27.0437 13.2413 26.9482 14.0046 26.7756C16.677 26.1712 18.8908 24.468 20.1122 22.0767C20.2593 21.7889 20.3795 21.5413 20.3795 21.5264C20.3795 21.5114 19.3952 21.4929 18.1922 21.4852L16.005 21.4712L14.978 17.9966C14.4132 16.0855 13.9443 14.5153 13.936 14.5071C13.9277 14.499 13.2571 17.2911 12.4458 20.7119ZM7.16782 19.9988L6.08899 21.498H4.86697H3.6449L3.68299 21.6184C3.7633 21.8724 4.14661 22.5675 4.45953 23.0265C5.74545 24.9132 7.74924 26.2698 9.9927 26.7726C10.1985 26.8187 10.3724 26.8493 10.3791 26.8404C10.3991 26.8144 8.31377 18.5639 8.27873 18.5303C8.26108 18.5134 7.76117 19.1742 7.16782 19.9988Z" fill="#656567"/>
</svg>
