<svg id="Layer_1" data-name="Layer 1" xmlns="http://www.w3.org/2000/svg" viewBox="0 0 24 24"><defs><style>.cls-1{fill:#656567;}</style></defs><path class="cls-1" d="M4,8.11A.34.34,0,0,1,3.74,8a.37.37,0,0,1,0-.53,11.68,11.68,0,0,1,16.49,0A.37.37,0,0,1,19.7,8,10.93,10.93,0,0,0,4.27,8,.35.35,0,0,1,4,8.11Z"/><path class="cls-1" d="M22.4,5.68a.34.34,0,0,1-.26-.11,14.36,14.36,0,0,0-20.28,0,.37.37,0,0,1-.53,0,.39.39,0,0,1,0-.53A15.11,15.11,0,0,1,22.67,5a.37.37,0,0,1,0,.53A.35.35,0,0,1,22.4,5.68Z"/><path class="cls-1" d="M16.23,18a.37.37,0,0,1-.35-.25L14,12.47l-2.37,8a.38.38,0,0,1-.32.27h0a.4.4,0,0,1-.33-.2L8.52,15.89l-1,1.86a.36.36,0,0,1-.33.19H4.59a7.77,7.77,0,0,0,14.82,0Z"/><path class="cls-1" d="M7,17.19,8.2,14.92a.34.34,0,0,1,.33-.2.38.38,0,0,1,.33.2l2.33,4.42,2.42-8.18a.37.37,0,0,1,.35-.27.4.4,0,0,1,.37.25L16.5,17.2h3.11a8.43,8.43,0,0,0,.16-1.6,7.77,7.77,0,0,0-15.54,0,8.24,8.24,0,0,0,.16,1.59Z"/></svg>